<?xml version="1.0" encoding="UTF-8"?>
<svg xmlns="http://www.w3.org/2000/svg" version="1.1" viewBox="0 0 60.49 49.47">
  <defs>
    <style>
      .cls-1 {
        fill: #38c0c7;
      }

      .cls-2 {
        isolation: isolate;
      }

      .cls-3 {
        fill: #11203c;
      }
    </style>
  </defs>
  <!-- Generator: Adobe Illustrator 28.7.1, SVG Export Plug-In . SVG Version: 1.2.0 Build 142)  -->
  <g>
    <g id="Layer_1">
      <g>
        <g id="S" class="cls-2">
          <g class="cls-2">
            <path class="cls-1" d="M36.66,39.13c-1.09,1.56-2.61,2.78-4.55,3.63-1.95.86-4.22,1.29-6.83,1.29-2.09,0-4.15-.32-6.19-.94s-3.79-1.46-5.27-2.51l1.15-4.55c1.53,1.1,3.21,1.97,5.01,2.6,1.81.63,3.54.94,5.2.94,1.56,0,2.94-.24,4.12-.71,1.18-.47,2.09-1.15,2.74-2.02.64-.87.97-1.86.97-2.97,0-.83-.21-1.58-.62-2.25-.41-.68-1.1-1.35-2.07-2.02-.97-.67-2.26-1.4-3.89-2.16-1.93-.92-3.47-1.85-4.62-2.78-1.15-.93-1.99-1.97-2.51-3.1s-.78-2.42-.78-3.86c0-1.99.52-3.75,1.56-5.27,1.04-1.52,2.49-2.7,4.35-3.54s3.98-1.27,6.37-1.27c1.2,0,2.38.12,3.57.35,1.18.23,2.33.56,3.45.99,1.12.43,2.12.95,3.01,1.56l-1.2,4.37c-1.41-.89-2.89-1.58-4.44-2.07-1.55-.49-3.03-.74-4.44-.74s-2.61.22-3.68.67c-1.07.45-1.91,1.07-2.51,1.89-.6.81-.9,1.76-.9,2.83,0,.74.18,1.43.55,2.07.37.64.97,1.26,1.79,1.84.83.58,1.92,1.18,3.27,1.79,2.3,1.07,4.1,2.12,5.41,3.13,1.3,1.01,2.23,2.1,2.78,3.27.55,1.17.83,2.56.83,4.19,0,2.02-.54,3.82-1.63,5.38Z"/>
          </g>
        </g>
        <path class="cls-3" d="M52.1,39.13c-1.09,1.56-2.61,2.78-4.55,3.63s-4.22,1.29-6.83,1.29c-2.09,0-4.15-.32-6.19-.94-2.04-.63-3.79-1.46-5.27-2.51l1.15-4.55c1.53,1.1,3.2,1.97,5.01,2.6,1.81.63,3.54.94,5.2.94,1.56,0,2.94-.24,4.12-.71,1.18-.47,2.09-1.15,2.74-2.02.64-.87.97-1.86.97-2.97,0-.83-.21-1.58-.62-2.25-.41-.67-1.1-1.35-2.07-2.02-.97-.67-2.26-1.4-3.89-2.16-1.93-.92-3.47-1.85-4.62-2.78-1.15-.93-1.99-1.97-2.51-3.1-.52-1.13-.78-2.42-.78-3.86,0-1.99.52-3.75,1.56-5.27,1.04-1.52,2.49-2.7,4.35-3.54,1.85-.84,3.98-1.27,6.37-1.27,1.2,0,2.38.12,3.56.35,1.18.23,2.33.56,3.45.99,1.12.43,2.12.95,3.01,1.56l-1.2,4.37c-1.41-.89-2.89-1.58-4.44-2.07-1.55-.49-3.03-.74-4.44-.74s-2.61.22-3.68.67c-1.07.45-1.91,1.07-2.51,1.89-.6.81-.9,1.76-.9,2.83,0,.74.18,1.43.55,2.07.37.64.97,1.26,1.79,1.84.83.58,1.92,1.18,3.27,1.79,2.3,1.07,4.1,2.12,5.41,3.13,1.3,1.01,2.23,2.1,2.78,3.27.55,1.17.83,2.56.83,4.19,0,2.02-.54,3.82-1.63,5.38Z"/>
        <polygon class="cls-3" points="18.98 7.81 13.51 7.81 14.55 2.49 10.48 2.49 9.44 7.81 3.96 7.81 3.18 11.81 8.66 11.81 7.63 17.14 11.7 17.14 12.74 11.81 18.2 11.81 18.98 7.81"/>
      </g>
    </g>
  </g>
</svg>