<svg xmlns="http://www.w3.org/2000/svg" xmlns:xlink="http://www.w3.org/1999/xlink" width="1422" height="617" viewBox="0 0 1422 617">
  <defs>
    <clipPath id="clip-path">
      <rect id="Rectangle_2" data-name="Rectangle 2" width="1422" height="617" transform="translate(-69 -132)" fill="#00587c"/>
    </clipPath>
    <clipPath id="clip-path-2">
      <rect id="Rectangle_188" data-name="Rectangle 188" width="2664.271" height="2369.989" fill="none"/>
    </clipPath>
    <clipPath id="clip-path-3">
      <rect id="Rectangle_95" data-name="Rectangle 95" width="1664.959" height="949.235" fill="none"/>
    </clipPath>
    <linearGradient id="linear-gradient" x1="-0.379" y1="1.123" x2="-0.378" y2="1.123" gradientUnits="objectBoundingBox">
      <stop offset="0" stop-color="#226498"/>
      <stop offset="0.518" stop-color="#123a65"/>
      <stop offset="1" stop-color="#12203d"/>
    </linearGradient>
    <clipPath id="clip-path-4">
      <rect id="Rectangle_187" data-name="Rectangle 187" width="1664.959" height="949.236" fill="none"/>
    </clipPath>
    <clipPath id="clip-path-6">
      <path id="Path_115" data-name="Path 115" d="M1372.725,686.026l-65.668-152.119c3.781-6.906,5.4-15.54,3.6-19.855-1.821-4.354-6.468-2.746-10.641,3.518L1191.678,266.019l-.309-.716-143.947,94.309a19.157,19.157,0,0,0-2.323-6.578c-4.071-6.731-11.367-5.954-17.216,1.349L913.74,170.215l-.618-.995L696.8,284.3a33.1,33.1,0,0,0-7.319-17.106c-8.816-10.142-21.9-9.142-30.141,1.984L417.25,0l-3.244,5.4L656.683,273.517a39.986,39.986,0,0,0-1.221,32.669L417.677,431.6a32.175,32.175,0,0,0-8.667-10.469c-12.8-9.955-30.066-7.277-39.413,5.9L3.74,152.657,0,158.863,366.718,431.922c-6.8,14.5-2.379,32.765,10.48,42a28.084,28.084,0,0,0,11.521,4.9L373.232,796.932,32.806,637.309,29.563,642.7,372.974,802.29l-12.636,263.1a36.835,36.835,0,0,0-18.855,15.26c-7.241,12.017-3.741,23.918,7.642,26.539a22.952,22.952,0,0,0,9.172.093l-10.832,219.165,196.469,13.117-20.113,157.817a41.121,41.121,0,0,0-13.259,13.229c-5.238,8.693-3.556,15.186,3.676,14.51,6.75-.631,15.936-7.3,21.248-15.193l237.365-19.291.414-.034L885.62,1372.262a2.5,2.5,0,0,0,2.023,1.042c3.636.192,9.665-4.807,13.494-11.162,2.258-3.748,3.254-7.143,2.972-9.372l91.612-96.68a2.281,2.281,0,0,0,1.658,1.539,4.8,4.8,0,0,0,3.017-.567l-33.154,110.063-.146.485,56.659,3.9c-2.791,4.979-3.164,8.982-.767,9.108,2.512.132,7.116-4.048,10.3-9.334,1.919-3.184,2.89-6.053,2.827-7.884l78.719-88.478,42.8,10.5.931-1.544-43.114-10.723-79.487,89.3a1.493,1.493,0,0,0-1.357-1.113c-2.342-.194-6.6,3.5-9.79,8.416L968.8,1365.75l33.04-109.516a26.2,26.2,0,0,0,6.9-7.343l55.382,13.589,81.893-89.323a1.952,1.952,0,0,0,1.019,1.595c1.93.86,5.81-2.268,8.918-7.074l38.157,17.783.967-1.6L1157,1165.949c2.776-4.96,3.545-9.545,1.656-10.473s-5.81,2.172-8.961,7.038l-41.542-19.534a20.381,20.381,0,0,0,2.757-8.1l82.8-87.177,39.86,29.68,1.006-1.67-39.4-29.55L1270.4,966.95a3.133,3.133,0,0,0,.659,1.993c1.49,1.6,5.019-.945,8.093-5.7l56.773,62.857.9-1.489-56.629-63.1c2.8-5.015,3.925-10.182,2.482-11.843a1.581,1.581,0,0,0-1.554-.487l42.311-115.845,29.229,46.723,1.006-1.669-29.414-47.305,46.363-126.942c1.753-.508,4.048-2.743,6.194-6.305,3.477-5.77,5.278-12.883,4.012-15.909-1.2-2.877-4.742-1.033-8.1,4.1M888.58,1360.374l-341.411-23.733,23.323-181.379a32,32,0,0,0,14.06-10.684l245.825,60.48c-3.9,7.168-3.609,13.558.788,14.563,4.35.995,11.167-3.649,15.709-10.5l82.718,20.352L896.751,1351.8a29.888,29.888,0,0,0-8.17,8.57M652.43,641.9a30.262,30.262,0,0,0,3.816-22.273l196.666-128.3,120.581,133.5L603.338,902.948l32-248.665c6.371-.892,12.8-5.256,17.089-12.379m368.242-260.8a19.573,19.573,0,0,0,2.694,7.99,8.759,8.759,0,0,0,5.482,4.1L975.32,621.809,856.248,489.137Zm56.9,334.3a8.641,8.641,0,0,0-1.81-4.206,4.851,4.851,0,0,0-3.655-1.722l52.415-194.1,66.135,105.717ZM1188.6,862.974c-2.3,4.177-3.517,8.552-3.385,11.668L1098.39,959.1a4.338,4.338,0,0,0-1.449-2.709c-2.69-2.091-7.876,1.095-11.895,7.182l-62.012-46.505a24.347,24.347,0,0,0,3.376-12.125l110.33-99.54ZM973.916,627.806,927.027,828.433c-3.924,1.127-8.238,4.735-11.469,10.1-3.207,5.322-4.571,11.087-4.053,15.544L773.769,967.859a7.711,7.711,0,0,0-3.321-3.191c-5.7-2.8-14.471,1.55-20.184,9.838L604.639,905.824Zm87.683,114.1L1019.14,899.077c-3,1.049-6.388,3.984-9.156,8.2L933.3,849.77a25.448,25.448,0,0,0,3.289-13.76l119.658-100.17a8.561,8.561,0,0,0,1.961,4.493,4.836,4.836,0,0,0,3.394,1.576M772.206,984.854c2.81-5.363,3.613-10.772,2.477-14.772L912.012,856.46a7.7,7.7,0,0,0,2.73,4.035c4.448,3.193,11.768-.373,16.88-7.945l76.87,57.237a23.748,23.748,0,0,0-3.112,11.872L879.326,1035.375Zm249.34-65.346,62.162,46.286c-3.536,6.449-4.218,13-1.461,14.98a3.443,3.443,0,0,0,2.725.484l-41.1,131.495-71.79-33.758,41.121-151.9c2.77-1.165,5.8-3.836,8.339-7.584m4.6-16.573a5.8,5.8,0,0,0-1.941-3.382,4.53,4.53,0,0,0-3.31-.868l42.486-156.945c2.969-.7,6.329-3.4,9.157-7.608l63.144,70.1Zm97.724-388.592-.919-.076L1070.289,709.7c-3.219.835-6.874,3.951-9.816,8.833a29.612,29.612,0,0,0-4.434,14.851L936.145,833.6a7.979,7.979,0,0,0-2.644-4.235,6.4,6.4,0,0,0-4.3-1.291l47.888-204.3h0L1031.2,393.334c3.829-.379,7.985-3.483,11.321-9.019l0-.006Zm-353.456,473.5L876.864,1037.6,724.7,1175.156l.345.76-138.346-34.5c3.124-5.271,4.127-10.447,3.191-14.432L746.295,993.919a7.862,7.862,0,0,0,4.012,4.172c5.815,2.589,14.541-1.983,20.109-10.25m61.47,214.72-105.55-26.322,152.9-138.38,126.446-114.2a5.6,5.6,0,0,0,2.022,3.287,4.749,4.749,0,0,0,3.725.688l-41.073,152.041-120.034,114.7a4.08,4.08,0,0,0-2.646-2.152c-4.289-1.14-11.154,3.413-15.787,10.335m267.546-63.684-54.456-25.608.1-.319L1086.431,980.8c2.451-1.077,5.255-3.685,7.633-7.294l51.281,38.184-39.094,120.192a21.473,21.473,0,0,0-6.82,7m-4.052-167.555a23.147,23.147,0,0,0,3.164-10.528l86.881-84.582a4.111,4.111,0,0,0,.923,1.865,2.59,2.59,0,0,0,2.192.809L1146.1,1009.361Zm94.5-110.46-51.2-57.2,106.234-95.844,42.307,67.622-85.824,83.478a6.02,6.02,0,0,0-1.064-4.033c-2.11-2.427-6.668.236-10.449,5.981m55.093-155.117-107.35,96.737-63.512-70.954a28.982,28.982,0,0,0,3.691-13.713l114.08-95.285L1294.362,537.1a9.551,9.551,0,0,0,.7,2.821,3.307,3.307,0,0,0,3.229,2.289Zm-54.8-436,108.425,250.181a34.807,34.807,0,0,0-4.317,14.916l-101.623,84.585-148.329-238.56a39.182,39.182,0,0,0,3.49-17.593ZM657.849,310.789a26.707,26.707,0,0,0,3,3.925c9.511,10.2,23.4,7.866,31.172-5.037A38.385,38.385,0,0,0,697.2,289.87l214.829-114.8,113.721,182.371c-.006.01-.013.019-.018.028a38.938,38.938,0,0,0-5.32,19.839L853.4,486.728,654.962,615.817a18.226,18.226,0,0,0-5.426-7.152c-8.337-6.48-20.513-3.179-27.949,7.34l-203.5-152.614a34.749,34.749,0,0,0,1.824-26.55ZM377.784,800.43l.065-1.333,16.069-319.856a27.335,27.335,0,0,0,21.3-11.2l204,151.9c-5.925,11.65-4.052,25.448,4.492,31.584a15.539,15.539,0,0,0,7.975,2.879l-32.2,252.41-.138,1.07,149.061,69.678c-2.671,5-3.6,10.028-2.85,13.951L588.979,1124.528a8.756,8.756,0,0,0-5.673-4.459c-7.834-2.1-19.128,4.245-25.237,14.207L382.146,1090.4c6.779-11.551,3.681-23.159-7.2-26.069a22.818,22.818,0,0,0-10.243-.148Zm-26.242,522.612L362.6,1106.183a37.16,37.16,0,0,0,16.974-12.035l176.727,43.48c-4,8.891-1.917,16.835,5.282,18.493a14.164,14.164,0,0,0,5.73.009l-22.98,180.314ZM773.766,1488.46l-236.6,18.684c4.161-7.812,2.482-13.608-4.165-13.156a18.066,18.066,0,0,0-6.3,1.835l20.068-156.071,340.55,22.736c-1.946,3.6-2.67,6.761-2.16,8.725Zm130.021-136.876a2.463,2.463,0,0,0-2.161-1.486,6.518,6.518,0,0,0-3.226.774l33.208-123.442-83.261-20.764c2.226-4.127,3.063-8.007,2.511-10.733l119.821-114.609,72.479,33.78-36.615,121.551a26.333,26.333,0,0,0-7.932,8.6c-2.271,3.768-3.347,7.31-3.147,9.647Zm160.97-91.037-54.819-13.634c3.125-5.648,3.512-10.628.745-11.363a4.323,4.323,0,0,0-2.71.366l36.292-120.3,54.011,25.172c-3.057,5.5-3.694,10.6-1.371,11.634,2.3,1.026,6.7-2.32,10.111-7.56l41.624,19.4a19.19,19.19,0,0,0-2.676,7.756Zm46.118-127.015a2.621,2.621,0,0,0-1.278-2.169,2.84,2.84,0,0,0-2.115-.022l38.75-118.99,46.737,34.8Zm83.56-87.924-47.446-35.582,42.8-131.433c2.344-.878,5.187-3.614,7.6-7.614a28.5,28.5,0,0,0,3.84-10.153l85.863-83.592-48.639,140.147-.2.573,35.278,39.058a24.128,24.128,0,0,0-3.083,8.614Zm85.743-96.109c-1.644.784-3.7,2.844-5.59,5.761l-34.838-38.817,49.1-141.33.218-.629-42.828-68.876,53.447-163.714c1.864-.723,3.978-2.663,5.977-5.672L1371.57,687.94c-3.161,5.664-4.687,12.235-3.43,15.04a1.9,1.9,0,0,0,1.547,1.255Z" transform="translate(0 0.004)" fill="none"/>
    </clipPath>
    <linearGradient id="linear-gradient-2" x1="0.16" y1="1.307" x2="0.16" y2="1.307" gradientUnits="objectBoundingBox">
      <stop offset="0" stop-color="#0066d4"/>
      <stop offset="1" stop-color="#3ff1ff"/>
    </linearGradient>
    <clipPath id="clip-path-7">
      <path id="Path_116" data-name="Path 116" d="M2711.818,2619.138l65.668,152.119c-3.781,6.906-5.4,15.54-3.6,19.855,1.821,4.354,6.468,2.745,10.641-3.518l108.337,251.552.309.716,143.947-94.309a19.158,19.158,0,0,0,2.323,6.577c4.07,6.732,11.366,5.954,17.216-1.349L3170.8,3134.949l.618,1,216.321-115.084a33.1,33.1,0,0,0,7.319,17.106c8.816,10.142,21.9,9.142,30.14-1.984l242.092,269.187,3.244-5.4-242.677-268.125a39.986,39.986,0,0,0,1.221-32.67l237.786-125.415a32.135,32.135,0,0,0,8.667,10.469c12.8,9.955,30.065,7.277,39.413-5.9L4080.8,3152.508l3.74-6.207-366.718-273.058c6.8-14.5,2.379-32.765-10.479-42a28.1,28.1,0,0,0-11.521-4.9l15.486-318.106,340.427,159.623,3.242-5.395-343.41-159.586,12.636-263.1a36.834,36.834,0,0,0,18.855-15.261c7.24-12.017,3.741-23.916-7.643-26.539a22.969,22.969,0,0,0-9.172-.093l10.832-219.164L3540.609,1965.6l20.113-157.817a41.11,41.11,0,0,0,13.259-13.23c5.239-8.693,3.557-15.186-3.676-14.51-6.749.631-15.936,7.3-21.248,15.193l-237.365,19.291-.415.035L3198.922,1932.9a2.505,2.505,0,0,0-2.023-1.041c-3.636-.192-9.664,4.807-13.494,11.161-2.258,3.748-3.254,7.143-2.972,9.372l-91.611,96.68a2.282,2.282,0,0,0-1.659-1.539,4.8,4.8,0,0,0-3.017.567l33.155-110.064.146-.485-56.659-3.9c2.792-4.979,3.165-8.982.767-9.108-2.511-.132-7.115,4.048-10.3,9.335-1.919,3.184-2.889,6.054-2.827,7.885l-78.719,88.477-42.795-10.5-.931,1.544,43.114,10.723,79.487-89.3a1.494,1.494,0,0,0,1.357,1.113c2.343.194,6.6-3.5,9.79-8.416l56.009,4.008-33.04,109.516a26.2,26.2,0,0,0-6.9,7.343l-55.382-13.589-81.893,89.323a1.954,1.954,0,0,0-1.02-1.595c-1.93-.86-5.811,2.269-8.918,7.074l-38.158-17.784-.967,1.6,38.082,17.908c-2.776,4.96-3.543,9.545-1.655,10.473s5.81-2.171,8.961-7.038l41.543,19.534a20.371,20.371,0,0,0-2.758,8.1l-82.8,87.177-39.86-29.68-1.007,1.67,39.4,29.55-75.231,79.211a3.129,3.129,0,0,0-.659-1.993c-1.49-1.6-5.019.944-8.093,5.7l-56.773-62.856-.9,1.489,56.629,63.1c-2.8,5.016-3.925,10.183-2.481,11.844a1.58,1.58,0,0,0,1.553.486l-42.311,115.845-29.23-46.722-1.005,1.669,29.414,47.305-46.364,126.942c-1.754.507-4.048,2.743-6.194,6.3-3.477,5.771-5.277,12.884-4.012,15.91,1.2,2.877,4.741,1.033,8.1-4.1m484.145-674.348,341.411,23.733L3514.051,2149.9a31.994,31.994,0,0,0-14.059,10.684L3254.166,2100.1c3.9-7.167,3.609-13.558-.787-14.563-4.35-.995-11.167,3.649-15.709,10.5l-82.718-20.351,32.842-122.335a29.912,29.912,0,0,0,8.17-8.57m236.149,718.47a30.261,30.261,0,0,0-3.816,22.274l-196.667,128.3-120.581-133.5,370.155-278.12-32,248.666c-6.372.892-12.8,5.255-17.089,12.378m-368.242,260.8a19.56,19.56,0,0,0-2.695-7.989,8.754,8.754,0,0,0-5.482-4.1l53.53-228.608L3228.3,2816.027Zm-56.9-334.3a8.645,8.645,0,0,0,1.81,4.206,4.852,4.852,0,0,0,3.655,1.722l-52.414,194.1-66.135-105.716ZM2895.938,2442.19c2.3-4.176,3.517-8.552,3.385-11.668l86.83-84.457a4.338,4.338,0,0,0,1.449,2.709c2.689,2.091,7.876-1.095,11.895-7.182l62.012,46.506a24.345,24.345,0,0,0-3.376,12.125l-110.331,99.54Zm214.689,235.168,46.888-200.626c3.926-1.128,8.238-4.735,11.469-10.1,3.207-5.322,4.571-11.086,4.053-15.543l137.736-113.786a7.712,7.712,0,0,0,3.321,3.191c5.7,2.8,14.471-1.549,20.184-9.838L3479.9,2399.34Zm-87.683-114.1,42.459-157.168c3-1.051,6.387-3.984,9.155-8.2l76.687,57.51a25.454,25.454,0,0,0-3.289,13.759L3028.3,2569.324a8.553,8.553,0,0,0-1.96-4.493,4.835,4.835,0,0,0-3.394-1.576m289.393-242.944c-2.81,5.363-3.612,10.771-2.476,14.771L3172.531,2448.7a7.692,7.692,0,0,0-2.73-4.035c-4.447-3.193-11.767.373-16.88,7.945l-76.87-57.237a23.757,23.757,0,0,0,3.113-11.872l126.053-113.716ZM3063,2385.657l-62.162-46.286c3.536-6.449,4.218-13,1.461-14.981a3.448,3.448,0,0,0-2.725-.485l41.1-131.494,71.79,33.758-41.121,151.9c-2.77,1.165-5.8,3.836-8.339,7.584m-4.6,16.574a5.8,5.8,0,0,0,1.941,3.382,4.529,4.529,0,0,0,3.31.868l-42.485,156.945c-2.97.705-6.33,3.4-9.158,7.608l-63.144-70.1Zm-97.724,388.592.919.076,52.665-195.433c3.218-.835,6.873-3.951,9.816-8.834a29.621,29.621,0,0,0,4.434-14.851L3148.4,2471.566a7.984,7.984,0,0,0,2.644,4.236,6.4,6.4,0,0,0,4.3,1.29l-47.888,204.3h0l-54.116,230.441c-3.829.378-7.984,3.483-11.321,9.019l0,.006Zm353.456-473.5-106.448-49.759,152.166-137.557-.345-.761,138.346,34.5c-3.125,5.271-4.127,10.447-3.19,14.431l-156.407,133.065a7.856,7.856,0,0,0-4.012-4.171c-5.815-2.59-14.541,1.981-20.109,10.25m-61.47-214.721,105.549,26.322-152.9,138.38-126.446,114.2a5.6,5.6,0,0,0-2.022-3.287,4.752,4.752,0,0,0-3.725-.688l41.073-152.041,120.034-114.7a4.081,4.081,0,0,0,2.646,2.152c4.288,1.14,11.155-3.413,15.788-10.335m-267.546,63.684,54.457,25.607-.1.32-41.359,132.151c-2.452,1.076-5.255,3.685-7.633,7.294l-51.281-38.184,39.093-120.192a21.471,21.471,0,0,0,6.82-7m4.052,167.555A23.168,23.168,0,0,0,2986,2344.37l-86.88,84.583a4.122,4.122,0,0,0-.923-1.866,2.6,2.6,0,0,0-2.193-.808L2938.44,2295.8Zm-94.5,110.46,51.2,57.2-106.235,95.844-42.306-67.622,85.824-83.478a6.021,6.021,0,0,0,1.063,4.033c2.11,2.427,6.668-.235,10.449-5.981m-55.094,155.117,107.35-96.737,63.511,70.954a28.99,28.99,0,0,0-3.691,13.713l-114.08,95.285-102.483,85.429a9.571,9.571,0,0,0-.7-2.821,3.306,3.306,0,0,0-3.229-2.29Zm54.8,436L2785.95,2785.236a34.8,34.8,0,0,0,4.316-14.915l101.624-84.585,148.33,238.56a39.182,39.182,0,0,0-3.491,17.593Zm532.319-41.042a26.736,26.736,0,0,0-3-3.926c-9.511-10.2-23.4-7.866-31.171,5.037a38.38,38.38,0,0,0-5.175,19.807l-214.83,114.8L3058.8,2947.722c.006-.01.012-.018.019-.028a38.94,38.94,0,0,0,5.319-19.839l167.01-109.418,198.437-129.089a18.236,18.236,0,0,0,5.426,7.152c8.337,6.479,20.513,3.179,27.949-7.341l203.5,152.614a34.751,34.751,0,0,0-1.824,26.551Zm280.065-489.641-.065,1.333-16.068,319.856a27.333,27.333,0,0,0-21.3,11.2l-204-151.9c5.924-11.649,4.052-25.449-4.492-31.584a15.542,15.542,0,0,0-7.975-2.879l32.2-252.41.138-1.07-149.061-69.678c2.671-5,3.6-10.028,2.85-13.95l156.585-133.023a8.756,8.756,0,0,0,5.673,4.46c7.834,2.095,19.127-4.245,25.236-14.208l175.923,43.873c-6.78,11.551-3.681,23.159,7.2,26.069a22.8,22.8,0,0,0,10.243.147ZM3733,1982.122l-11.055,216.86a37.166,37.166,0,0,0-16.975,12.035l-176.726-43.48c4-8.891,1.916-16.834-5.283-18.492a14.146,14.146,0,0,0-5.73-.01l22.98-180.314ZM3310.776,1816.7l236.6-18.684c-4.162,7.812-2.482,13.608,4.165,13.157a18.08,18.08,0,0,0,6.3-1.835l-20.068,156.071-340.551-22.736c1.946-3.6,2.67-6.761,2.161-8.725ZM3180.755,1953.58a2.464,2.464,0,0,0,2.161,1.486,6.516,6.516,0,0,0,3.227-.774l-33.208,123.442L3236.2,2098.5c-2.227,4.128-3.064,8.007-2.51,10.732l-119.821,114.61-72.48-33.78L3078,2068.509a26.32,26.32,0,0,0,7.931-8.6c2.271-3.767,3.348-7.31,3.148-9.648Zm-160.971,91.037,54.819,13.635c-3.125,5.648-3.512,10.627-.745,11.362a4.323,4.323,0,0,0,2.711-.366l-36.293,120.3-54.011-25.172c3.057-5.5,3.693-10.6,1.371-11.634-2.3-1.026-6.7,2.319-10.112,7.56l-41.623-19.4a19.2,19.2,0,0,0,2.676-7.755Zm-46.118,127.016a2.621,2.621,0,0,0,1.277,2.169,2.843,2.843,0,0,0,2.115.022l-38.75,118.99-46.737-34.8Zm-83.56,87.924,47.446,35.582-42.8,131.433c-2.345.877-5.188,3.614-7.6,7.615a28.492,28.492,0,0,0-3.839,10.153l-85.863,83.591,48.639-140.146.2-.573-35.278-39.058a24.133,24.133,0,0,0,3.084-8.614Zm-85.742,96.109c1.643-.785,3.7-2.844,5.59-5.762l34.838,38.817-49.1,141.33-.219.629,42.829,68.875-53.447,163.715c-1.864.723-3.979,2.663-5.978,5.672l-65.908-151.718c3.161-5.664,4.687-12.234,3.429-15.04a1.9,1.9,0,0,0-1.546-1.255Z" transform="translate(-2703.311 -1779.997)" fill="none"/>
    </clipPath>
    <linearGradient id="linear-gradient-3" x1="-0.475" y1="0.886" x2="-0.475" y2="0.886" xlink:href="#linear-gradient-2"/>
    <clipPath id="clip-path-8">
      <rect id="Rectangle_101" data-name="Rectangle 101" width="1756.602" height="1562.577" fill="none"/>
    </clipPath>
    <clipPath id="clip-path-9">
      <path id="Path_117" data-name="Path 117" d="M1861.273,1302.9l-43.3-100.295c2.493-4.554,3.562-10.246,2.373-13.091-1.2-2.871-4.265-1.81-7.016,2.32l-71.428-165.853-.2-.472-94.907,62.179a12.623,12.623,0,0,0-1.531-4.336c-2.684-4.439-7.495-3.926-11.351.889l-75.256-121.425-.408-.656-142.625,75.877a21.822,21.822,0,0,0-4.825-11.278c-5.812-6.687-14.436-6.028-19.872,1.308L1231.312,850.589l-2.139,3.557,160,176.78a26.368,26.368,0,0,0-.8,21.54l-156.776,82.688a21.222,21.222,0,0,0-5.714-6.9,17.817,17.817,0,0,0-25.986,3.887l-241.217-180.9-2.466,4.092,241.784,180.032c-4.486,9.561-1.569,21.6,6.909,27.694a18.517,18.517,0,0,0,7.6,3.231l-10.21,209.733L977.84,1270.781l-2.138,3.556,226.417,105.219-8.331,173.466a24.283,24.283,0,0,0-12.431,10.061c-4.774,7.923-2.467,15.769,5.039,17.5a15.131,15.131,0,0,0,6.047.062l-7.141,144.5,129.535,8.648-13.261,104.051a27.117,27.117,0,0,0-8.742,8.723c-3.454,5.731-2.345,10.013,2.424,9.567,4.45-.416,10.507-4.81,14.009-10.018l156.5-12.718.273-.022,74.077-78.023a1.649,1.649,0,0,0,1.333.686c2.4.126,6.372-3.169,8.9-7.359,1.489-2.471,2.146-4.71,1.959-6.179l60.4-63.743a1.5,1.5,0,0,0,1.093,1.014,3.167,3.167,0,0,0,1.989-.373l-21.859,72.567-.1.319,37.356,2.571c-1.84,3.283-2.086,5.922-.506,6,1.656.087,4.692-2.669,6.792-6.155a10.806,10.806,0,0,0,1.864-5.2l51.9-58.334,28.216,6.923.614-1.018-28.426-7.07-52.407,58.878a.985.985,0,0,0-.9-.734c-1.545-.128-4.354,2.31-6.455,5.549l-36.927-2.642,21.784-72.207a17.273,17.273,0,0,0,4.551-4.841l36.515,8.959,53.994-58.892a1.289,1.289,0,0,0,.672,1.052c1.273.567,3.83-1.5,5.88-4.665l25.158,11.725.637-1.058-25.109-11.807c1.83-3.271,2.337-6.293,1.092-6.905s-3.831,1.432-5.908,4.641l-27.389-12.88a13.443,13.443,0,0,0,1.818-5.341l54.59-57.478,26.281,19.568.663-1.1-25.979-19.483,49.6-52.225a2.066,2.066,0,0,0,.435,1.314c.983,1.053,3.31-.623,5.336-3.76l37.432,41.442.591-.981-37.336-41.6c1.849-3.307,2.587-6.714,1.636-7.808a1.044,1.044,0,0,0-1.025-.321l27.9-76.379,19.271,30.805.664-1.1-19.393-31.189,30.568-83.7c1.156-.334,2.669-1.808,4.084-4.156,2.292-3.8,3.48-8.494,2.645-10.49-.794-1.9-3.127-.681-5.343,2.7m-319.205,444.609-225.1-15.648,15.377-119.586a21.1,21.1,0,0,0,9.27-7.044l162.077,39.875c-2.568,4.726-2.379,8.94.519,9.6,2.869.656,7.363-2.406,10.357-6.926l54.538,13.418-21.653,80.658a19.712,19.712,0,0,0-5.387,5.65m-155.7-473.7a19.951,19.951,0,0,0,2.517-14.685l129.666-84.594,79.5,88.02L1354,1445.921l21.1-163.95c4.2-.589,8.438-3.466,11.267-8.161m242.789-171.947a12.915,12.915,0,0,0,1.776,5.268,5.772,5.772,0,0,0,3.615,2.705l-35.293,150.726-78.506-87.473Zm37.514,220.408a5.7,5.7,0,0,0-1.193-2.773,3.2,3.2,0,0,0-2.41-1.136l34.558-127.974,43.6,69.7Zm73.207,97.295a15.946,15.946,0,0,0-2.231,7.693l-57.249,55.684a2.863,2.863,0,0,0-.955-1.786c-1.774-1.378-5.192.722-7.842,4.735l-40.886-30.662a16.051,16.051,0,0,0,2.226-7.995l72.744-65.628Zm-141.548-155.051-30.915,132.277c-2.588.743-5.432,3.122-7.562,6.656a17.05,17.05,0,0,0-2.672,10.249l-90.812,75.02a5.082,5.082,0,0,0-2.189-2.1c-3.76-1.848-9.541,1.022-13.308,6.486l-96.013-45.283Zm57.811,75.23-27.993,103.624c-1.981.693-4.212,2.627-6.037,5.409l-50.561-37.918a16.782,16.782,0,0,0,2.168-9.072l78.893-66.043a5.644,5.644,0,0,0,1.292,2.962,3.189,3.189,0,0,0,2.238,1.039m-190.8,160.178c1.853-3.536,2.382-7.1,1.632-9.738l90.544-74.914a5.072,5.072,0,0,0,1.8,2.66c2.932,2.106,7.759-.246,11.129-5.238l50.682,37.738a15.663,15.663,0,0,0-2.052,7.827l-83.11,74.975Zm164.395-43.084,40.984,30.517c-2.331,4.251-2.78,8.571-.963,9.877a2.27,2.27,0,0,0,1.8.319l-27.1,86.7-47.332-22.257,27.111-100.153a13.627,13.627,0,0,0,5.5-5m3.034-10.927a3.822,3.822,0,0,0-1.279-2.23,2.984,2.984,0,0,0-2.182-.572l28.012-103.477c1.958-.464,4.173-2.24,6.037-5.016l41.632,46.216Zm64.432-256.206-.606-.05-34.723,128.852c-2.122.551-4.532,2.6-6.472,5.824a19.531,19.531,0,0,0-2.924,9.792l-79.048,66.074a5.256,5.256,0,0,0-1.743-2.792,4.215,4.215,0,0,0-2.838-.851l31.573-134.7h0l35.68-151.934c2.525-.25,5.265-2.3,7.464-5.946l0,0Zm-233.04,312.186,70.183,32.807-100.327,90.694.228.5-91.214-22.747c2.06-3.475,2.722-6.887,2.1-9.515l103.122-87.732a5.183,5.183,0,0,0,2.645,2.75c3.834,1.707,9.587-1.307,13.258-6.758m40.528,141.569-69.591-17.355,100.807-91.236,83.368-75.3a3.7,3.7,0,0,0,1.333,2.167,3.133,3.133,0,0,0,2.456.453l-27.081,100.244-79.14,75.626a2.692,2.692,0,0,0-1.744-1.419c-2.827-.751-7.354,2.25-10.409,6.815m176.4-41.988-35.9-16.883.063-.21,27.269-87.13a13.078,13.078,0,0,0,5.032-4.809l33.81,25.175-25.775,79.245a14.164,14.164,0,0,0-4.5,4.613M1678.415,1491a15.258,15.258,0,0,0,2.086-6.941l57.282-55.767a2.709,2.709,0,0,0,.609,1.23,1.71,1.71,0,0,0,1.446.533l-27.98,86.025Zm62.3-72.828-33.759-37.715L1777,1317.266l27.893,44.584-56.585,55.039a3.968,3.968,0,0,0-.7-2.66c-1.391-1.6-4.4.155-6.89,3.943m36.324-102.271-70.777,63.78L1664.39,1332.9a19.111,19.111,0,0,0,2.434-9.041l75.214-62.823,67.57-56.325a6.3,6.3,0,0,0,.464,1.86,2.181,2.181,0,0,0,2.129,1.509Zm-36.132-287.461L1812.4,1193.39a22.941,22.941,0,0,0-2.847,9.834l-67,55.768-97.8-157.287a25.826,25.826,0,0,0,2.3-11.6ZM1389.943,1055.5a17.639,17.639,0,0,0,1.978,2.588c6.271,6.723,15.426,5.186,20.552-3.321a25.306,25.306,0,0,0,3.412-13.06l141.641-75.689,74.979,120.24-.012.019a25.669,25.669,0,0,0-3.507,13.08L1518.872,1171.5l-130.833,85.111a12.012,12.012,0,0,0-3.577-4.715c-5.5-4.272-13.525-2.1-18.427,4.84l-134.172-100.621a22.909,22.909,0,0,0,1.2-17.5Zm-184.652,322.829.043-.879,10.594-210.886a18.021,18.021,0,0,0,14.046-7.386l134.5,100.149c-3.906,7.681-2.672,16.778,2.962,20.823a10.239,10.239,0,0,0,5.258,1.9l-21.229,166.419-.091.705,98.279,45.94a14.488,14.488,0,0,0-1.879,9.2l-103.239,87.7a5.774,5.774,0,0,0-3.74-2.94c-5.165-1.382-12.611,2.8-16.64,9.367l-115.988-28.926c4.47-7.615,2.427-15.269-4.746-17.187a15.041,15.041,0,0,0-6.753-.1Zm-17.3,344.568,7.289-142.979a24.5,24.5,0,0,0,11.191-7.935l116.519,28.667c-2.637,5.863-1.263,11.1,3.483,12.192a9.314,9.314,0,0,0,3.778.006L1315.1,1731.733Zm278.38,109.064-156,12.318c2.744-5.151,1.636-8.972-2.746-8.674a11.911,11.911,0,0,0-4.152,1.21l13.232-102.9,224.531,14.99c-1.283,2.372-1.76,4.458-1.425,5.752Zm85.726-90.245a1.624,1.624,0,0,0-1.425-.979,4.293,4.293,0,0,0-2.127.51l21.9-81.388-54.9-13.69c1.468-2.721,2.02-5.279,1.655-7.076l79-75.564,47.787,22.272-24.141,80.141a17.359,17.359,0,0,0-5.229,5.668c-1.5,2.484-2.207,4.819-2.076,6.361Zm106.131-60.023-36.143-8.989c2.061-3.724,2.316-7.007.491-7.491a2.848,2.848,0,0,0-1.787.242l23.928-79.313,35.61,16.6c-2.015,3.629-2.435,6.988-.9,7.671s4.418-1.53,6.667-4.985l27.443,12.79a12.649,12.649,0,0,0-1.765,5.114Zm30.406-83.743a1.727,1.727,0,0,0-.842-1.43,1.876,1.876,0,0,0-1.394-.015l25.548-78.453L1742.758,1541Zm55.093-57.97-31.282-23.46,28.22-86.656c1.546-.579,3.42-2.383,5.009-5.02a18.79,18.79,0,0,0,2.532-6.694l56.611-55.113-32.068,92.4-.131.378,23.259,25.751a15.915,15.915,0,0,0-2.033,5.68Zm56.532-63.366a10.748,10.748,0,0,0-3.687,3.8L1773.6,1454.82l32.37-93.181.144-.415-28.237-45.411,35.238-107.94a9.52,9.52,0,0,0,3.941-3.74l43.454,100.03c-2.084,3.734-3.09,8.067-2.261,9.917a1.255,1.255,0,0,0,1.02.827Z" transform="translate(-956.211 -850.589)" fill="none"/>
    </clipPath>
    <linearGradient id="linear-gradient-4" x1="-0.178" y1="1.614" x2="-0.178" y2="1.614" xlink:href="#linear-gradient-2"/>
    <clipPath id="clip-path-10">
      <path id="Path_118" data-name="Path 118" d="M2744.161,2577.437l43.3,100.3c-2.493,4.553-3.562,10.245-2.373,13.091,1.2,2.87,4.264,1.81,7.016-2.321l71.429,165.853.2.472,94.907-62.179a12.642,12.642,0,0,0,1.531,4.337c2.684,4.438,7.495,3.926,11.351-.889l75.256,121.426.408.655L3189.81,2842.3a21.824,21.824,0,0,0,4.825,11.277c5.813,6.688,14.437,6.028,19.873-1.308l159.616,177.479,2.138-3.557-160-176.78a26.361,26.361,0,0,0,.806-21.54l156.776-82.689a21.2,21.2,0,0,0,5.713,6.9,17.818,17.818,0,0,0,25.987-3.886l241.216,180.9,2.466-4.092L3407.44,2744.973c4.485-9.561,1.568-21.6-6.91-27.694a18.515,18.515,0,0,0-7.6-3.232l10.21-209.732,224.449,105.242,2.138-3.557-226.417-105.218,8.332-173.467a24.283,24.283,0,0,0,12.431-10.062c4.773-7.922,2.466-15.768-5.039-17.5a15.137,15.137,0,0,0-6.047-.062l7.141-144.5-129.535-8.648,13.261-104.052a27.1,27.1,0,0,0,8.742-8.722c3.454-5.731,2.345-10.013-2.424-9.567-4.45.416-10.507,4.81-14.009,10.017l-156.5,12.718-.273.023-74.078,78.021a1.651,1.651,0,0,0-1.333-.686c-2.4-.126-6.372,3.169-8.9,7.359-1.49,2.471-2.146,4.709-1.96,6.179l-60.4,63.743a1.5,1.5,0,0,0-1.094-1.015,3.168,3.168,0,0,0-1.989.374l21.859-72.567.1-.32-37.357-2.571c1.84-3.282,2.086-5.922.506-6-1.656-.086-4.691,2.669-6.792,6.155a10.8,10.8,0,0,0-1.864,5.2l-51.9,58.335-28.217-6.922-.613,1.018,28.426,7.07,52.407-58.877a.986.986,0,0,0,.9.734c1.544.128,4.354-2.31,6.455-5.549l36.927,2.642-21.784,72.207a17.261,17.261,0,0,0-4.552,4.84l-36.514-8.959-53.994,58.893a1.286,1.286,0,0,0-.671-1.051c-1.273-.568-3.831,1.5-5.88,4.663l-25.158-11.724-.637,1.058,25.108,11.808c-1.831,3.27-2.337,6.292-1.092,6.9s3.83-1.432,5.908-4.64l27.39,12.88a13.445,13.445,0,0,0-1.819,5.341l-54.589,57.478-26.281-19.568-.663,1.1,25.979,19.484-49.6,52.225a2.071,2.071,0,0,0-.435-1.314c-.982-1.053-3.309.624-5.336,3.761l-37.431-41.443-.591.981,37.337,41.6c-1.849,3.306-2.588,6.713-1.636,7.807a1.043,1.043,0,0,0,1.024.321l-27.9,76.379-19.271-30.805-.664,1.1,19.393,31.188-30.568,83.7c-1.157.335-2.67,1.809-4.084,4.157-2.293,3.8-3.479,8.494-2.645,10.49.793,1.9,3.125.681,5.341-2.7m319.206-444.61,225.1,15.647-15.377,119.587a21.092,21.092,0,0,0-9.269,7.044l-162.077-39.876c2.568-4.726,2.379-8.938-.519-9.6-2.868-.656-7.363,2.405-10.357,6.925l-54.539-13.418,21.653-80.658a19.7,19.7,0,0,0,5.387-5.65m155.7,473.7a19.954,19.954,0,0,0-2.516,14.685l-129.665,84.594-79.5-88.02,244.051-183.37-21.1,163.949c-4.2.589-8.437,3.466-11.267,8.162m-242.789,171.948a12.908,12.908,0,0,0-1.777-5.268,5.773,5.773,0,0,0-3.615-2.706l35.293-150.725,78.506,87.473Zm-37.514-220.409a5.7,5.7,0,0,0,1.193,2.773,3.2,3.2,0,0,0,2.409,1.136l-34.558,127.974-43.6-69.7Zm-73.207-97.3a15.935,15.935,0,0,0,2.231-7.692l57.249-55.684a2.857,2.857,0,0,0,.955,1.786c1.773,1.379,5.193-.721,7.842-4.735l40.886,30.662a16.053,16.053,0,0,0-2.227,8l-72.743,65.628ZM3007.1,2615.822l30.915-132.277c2.588-.743,5.432-3.121,7.562-6.656a17.053,17.053,0,0,0,2.671-10.249l90.813-75.02a5.083,5.083,0,0,0,2.189,2.1c3.762,1.849,9.542-1.022,13.308-6.487l96.013,45.283Zm-57.812-75.23,27.994-103.623c1.981-.692,4.211-2.626,6.037-5.409l50.562,37.918a16.789,16.789,0,0,0-2.169,9.073l-78.892,66.043a5.642,5.642,0,0,0-1.292-2.962,3.19,3.19,0,0,0-2.239-1.04m190.8-160.178c-1.853,3.537-2.382,7.1-1.633,9.74l-90.543,74.914a5.072,5.072,0,0,0-1.8-2.66c-2.932-2.105-7.758.246-11.129,5.238l-50.682-37.737a15.67,15.67,0,0,0,2.053-7.828l83.109-74.975ZM2975.7,2423.5l-40.985-30.517c2.33-4.251,2.781-8.572.963-9.877a2.268,2.268,0,0,0-1.8-.319l27.095-86.7,47.332,22.257L2981.2,2418.5a13.633,13.633,0,0,0-5.5,5m-3.034,10.926a3.821,3.821,0,0,0,1.279,2.23,2.986,2.986,0,0,0,2.183.573L2948.115,2540.7c-1.957.465-4.172,2.24-6.037,5.016l-41.632-46.216Zm-64.433,256.207.607.05,34.722-128.852c2.122-.551,4.532-2.6,6.472-5.824a19.524,19.524,0,0,0,2.924-9.791l79.047-66.074a5.263,5.263,0,0,0,1.743,2.793,4.218,4.218,0,0,0,2.838.851l-31.573,134.7h0l-35.681,151.934c-2.525.25-5.264,2.3-7.464,5.946l0,0Zm233.041-312.186-70.183-32.807,100.326-90.694-.228-.5,91.214,22.748c-2.06,3.475-2.721,6.887-2.1,9.515l-103.123,87.733a5.181,5.181,0,0,0-2.645-2.751c-3.833-1.707-9.587,1.308-13.258,6.759m-40.528-141.569,69.591,17.354-100.807,91.236-83.368,75.295a3.689,3.689,0,0,0-1.333-2.167,3.132,3.132,0,0,0-2.456-.453l27.08-100.244,79.141-75.626a2.686,2.686,0,0,0,1.744,1.419c2.827.751,7.354-2.25,10.409-6.814m-176.4,41.988,35.9,16.884-.063.211-27.27,87.13a13.076,13.076,0,0,0-5.033,4.808l-33.81-25.175,25.775-79.244a14.175,14.175,0,0,0,4.5-4.614m2.671,110.472a15.266,15.266,0,0,0-2.085,6.942l-57.282,55.766a2.713,2.713,0,0,0-.608-1.23,1.709,1.709,0,0,0-1.446-.533l27.979-86.025Zm-62.3,72.829,33.759,37.715-70.042,63.192-27.894-44.584,56.586-55.039a3.972,3.972,0,0,0,.7,2.66c1.391,1.6,4.4-.155,6.89-3.943m-36.324,102.271,70.777-63.78,41.875,46.781a19.121,19.121,0,0,0-2.434,9.041L2863.4,2619.3l-67.568,56.325a6.309,6.309,0,0,0-.464-1.861,2.179,2.179,0,0,0-2.129-1.509Zm36.132,287.46-71.487-164.948a22.948,22.948,0,0,0,2.846-9.835l67-55.769,97.8,157.287a25.833,25.833,0,0,0-2.3,11.6Zm350.968-27.059a17.637,17.637,0,0,0-1.978-2.587c-6.271-6.723-15.427-5.186-20.552,3.321a25.319,25.319,0,0,0-3.412,13.059l-141.64,75.689-74.979-120.241a.208.208,0,0,0,.012-.019,25.673,25.673,0,0,0,3.508-13.08l110.112-72.141,130.833-85.111a12.017,12.017,0,0,0,3.578,4.715c5.5,4.272,13.525,2.1,18.427-4.84l134.173,100.622a22.909,22.909,0,0,0-1.2,17.5Zm184.653-322.829-.044.879-10.595,210.886a18.02,18.02,0,0,0-14.045,7.386l-134.5-100.148c3.905-7.681,2.671-16.779-2.962-20.824a10.24,10.24,0,0,0-5.258-1.9l21.229-166.418.091-.706-98.279-45.939a14.5,14.5,0,0,0,1.88-9.2l103.239-87.7a5.771,5.771,0,0,0,3.74,2.941c5.165,1.382,12.611-2.8,16.639-9.367l115.989,28.925c-4.469,7.616-2.427,15.269,4.746,17.188a15.043,15.043,0,0,0,6.752.1Zm17.3-344.567-7.29,142.979a24.486,24.486,0,0,0-11.191,7.935l-116.52-28.668c2.637-5.862,1.264-11.1-3.482-12.191a9.319,9.319,0,0,0-3.779-.007l15.151-118.884Zm-278.381-109.064,156-12.318c-2.744,5.15-1.637,8.972,2.746,8.674a11.911,11.911,0,0,0,4.152-1.21l-13.231,102.9-224.531-14.99c1.283-2.373,1.76-4.457,1.424-5.752Zm-85.725,90.245a1.625,1.625,0,0,0,1.426.98,4.3,4.3,0,0,0,2.126-.51L3035,2220.479l54.9,13.69c-1.468,2.722-2.02,5.28-1.656,7.077l-79,75.564-47.787-22.272,24.141-80.14a17.358,17.358,0,0,0,5.23-5.667c1.5-2.484,2.207-4.82,2.075-6.361Zm-106.131,60.023,36.143,8.99c-2.06,3.723-2.316,7.006-.491,7.491a2.848,2.848,0,0,0,1.787-.241L2960.72,2294.2l-35.61-16.6c2.015-3.628,2.435-6.988.9-7.67s-4.417,1.529-6.666,4.985l-27.444-12.791a12.656,12.656,0,0,0,1.765-5.114Zm-30.407,83.743a1.725,1.725,0,0,0,.843,1.43,1.873,1.873,0,0,0,1.394.015l-25.548,78.453-30.814-22.944Zm-55.093,57.97,31.282,23.459-28.22,86.657c-1.546.579-3.42,2.383-5.009,5.02a18.764,18.764,0,0,0-2.531,6.694l-56.611,55.114,32.069-92.4.13-.378-23.258-25.751a15.912,15.912,0,0,0,2.032-5.68Zm-56.532,63.366a10.736,10.736,0,0,0,3.687-3.8l22.969,25.593-32.37,93.181-.144.416,28.238,45.411-35.239,107.939a9.519,9.519,0,0,0-3.941,3.74l-43.454-100.03c2.084-3.734,3.09-8.067,2.261-9.917a1.255,1.255,0,0,0-1.02-.827Z" transform="translate(-2738.552 -2024.176)" fill="none"/>
    </clipPath>
    <linearGradient id="linear-gradient-5" x1="-0.815" y1="1.196" x2="-0.815" y2="1.196" xlink:href="#linear-gradient-2"/>
    <clipPath id="clip-path-11">
      <rect id="Rectangle_106" data-name="Rectangle 106" width="122.769" height="122.769" fill="none"/>
    </clipPath>
    <clipPath id="clip-path-12">
      <rect id="Rectangle_103" data-name="Rectangle 103" width="98.55" height="98.55" fill="none"/>
    </clipPath>
    <clipPath id="clip-path-13">
      <path id="Path_119" data-name="Path 119" d="M1830.6,1668.167a49.275,49.275,0,1,1-49.275-49.275,49.42,49.42,0,0,1,49.275,49.275" transform="translate(-1732.048 -1618.891)" fill="none"/>
    </clipPath>
    <radialGradient id="radial-gradient" cx="0.5" cy="0.5" r="0.5" gradientTransform="matrix(1, 0, 0, -1, 0, 32.504)" gradientUnits="objectBoundingBox">
      <stop offset="0" stop-color="#939598"/>
      <stop offset="0.061" stop-color="#7f8184"/>
      <stop offset="0.205" stop-color="#595a5c"/>
      <stop offset="0.353" stop-color="#38393a"/>
      <stop offset="0.504" stop-color="#1f2020"/>
      <stop offset="0.659" stop-color="#0e0e0e"/>
      <stop offset="0.821" stop-color="#030303"/>
      <stop offset="1"/>
    </radialGradient>
    <clipPath id="clip-path-15">
      <path id="Path_120" data-name="Path 120" d="M1829.3,1654.761a61.385,61.385,0,1,1-61.385-61.385,61.332,61.332,0,0,1,61.385,61.385" transform="translate(-1706.533 -1593.376)" fill="none"/>
    </clipPath>
    <radialGradient id="radial-gradient-2" r="0.5" gradientTransform="matrix(1, 0, 0, -1, 0, 26.288)" xlink:href="#radial-gradient"/>
    <clipPath id="clip-path-16">
      <rect id="Rectangle_111" data-name="Rectangle 111" width="91.07" height="91.07" fill="none"/>
    </clipPath>
    <clipPath id="clip-path-17">
      <rect id="Rectangle_108" data-name="Rectangle 108" width="73.101" height="73.101" fill="none"/>
    </clipPath>
    <clipPath id="clip-path-18">
      <path id="Path_121" data-name="Path 121" d="M2007.611,2172.177a36.55,36.55,0,1,1-36.55-36.55,36.658,36.658,0,0,1,36.55,36.55" transform="translate(-1934.51 -2135.627)" fill="none"/>
    </clipPath>
    <radialGradient id="radial-gradient-3" r="0.5" gradientTransform="matrix(1, 0, 0, -1, 0, 37.11)" xlink:href="#radial-gradient"/>
    <clipPath id="clip-path-20">
      <path id="Path_122" data-name="Path 122" d="M2006.651,2162.235a45.533,45.533,0,1,1-45.533-45.533,45.494,45.494,0,0,1,45.533,45.533" transform="translate(-1915.584 -2116.702)" fill="none"/>
    </clipPath>
    <radialGradient id="radial-gradient-4" r="0.5" gradientTransform="matrix(1, 0, 0, -1, 0, 29.986)" xlink:href="#radial-gradient"/>
    <clipPath id="clip-path-22">
      <rect id="Rectangle_113" data-name="Rectangle 113" width="58.682" height="58.682" fill="none"/>
    </clipPath>
    <clipPath id="clip-path-23">
      <path id="Path_123" data-name="Path 123" d="M2118.723,2494.159a29.34,29.34,0,1,1-29.34-29.34,29.426,29.426,0,0,1,29.34,29.34" transform="translate(-2060.044 -2464.819)" fill="none"/>
    </clipPath>
    <radialGradient id="radial-gradient-5" r="0.5" gradientTransform="matrix(1, 0, 0, -1, 0, 40.905)" xlink:href="#radial-gradient"/>
    <clipPath id="clip-path-25">
      <path id="Path_124" data-name="Path 124" d="M2117.952,2486.177a36.551,36.551,0,1,1-36.551-36.55,36.52,36.52,0,0,1,36.551,36.55" transform="translate(-2044.851 -2449.627)" fill="none"/>
    </clipPath>
    <radialGradient id="radial-gradient-6" r="0.5" gradientTransform="matrix(1, 0, 0, -1, 0, 33.032)" xlink:href="#radial-gradient"/>
    <clipPath id="clip-path-28">
      <path id="Path_125" data-name="Path 125" d="M2365.1,2086.222a29.339,29.339,0,1,1-29.339-29.34,29.426,29.426,0,0,1,29.339,29.34" transform="translate(-2306.423 -2056.882)" fill="none"/>
    </clipPath>
    <radialGradient id="radial-gradient-7" r="0.5" gradientTransform="matrix(1, 0, 0, -1, 0, 47.504)" xlink:href="#radial-gradient"/>
    <clipPath id="clip-path-30">
      <path id="Path_126" data-name="Path 126" d="M2364.33,2078.24a36.55,36.55,0,1,1-36.551-36.551,36.52,36.52,0,0,1,36.551,36.551" transform="translate(-2291.229 -2041.689)" fill="none"/>
    </clipPath>
    <radialGradient id="radial-gradient-8" r="0.5" gradientTransform="matrix(1, 0, 0, -1, 0, 38.329)" xlink:href="#radial-gradient"/>
    <clipPath id="clip-path-32">
      <rect id="Rectangle_123" data-name="Rectangle 123" width="58.677" height="58.682" fill="none"/>
    </clipPath>
    <clipPath id="clip-path-33">
      <path id="Path_127" data-name="Path 127" d="M2610.295,2024.4a29.34,29.34,0,1,1-29.34-29.34,29.427,29.427,0,0,1,29.34,29.34" transform="translate(-2551.615 -1995.062)" fill="none"/>
    </clipPath>
    <radialGradient id="radial-gradient-9" r="0.5" gradientTransform="matrix(1, 0, 0, -1, 0, 48.504)" xlink:href="#radial-gradient"/>
    <clipPath id="clip-path-35">
      <path id="Path_128" data-name="Path 128" d="M2609.524,2016.42a36.551,36.551,0,1,1-36.551-36.55,36.519,36.519,0,0,1,36.551,36.55" transform="translate(-2536.423 -1979.87)" fill="none"/>
    </clipPath>
    <radialGradient id="radial-gradient-10" r="0.5" gradientTransform="matrix(1, 0, 0, -1, 0, 39.132)" xlink:href="#radial-gradient"/>
    <clipPath id="clip-path-36">
      <rect id="Rectangle_131" data-name="Rectangle 131" width="73.101" height="73.105" fill="none"/>
    </clipPath>
    <clipPath id="clip-path-38">
      <path id="Path_129" data-name="Path 129" d="M2485.726,2406.113a29.34,29.34,0,1,1-29.34-29.34,29.426,29.426,0,0,1,29.34,29.34" transform="translate(-2427.046 -2376.773)" fill="none"/>
    </clipPath>
    <radialGradient id="radial-gradient-11" r="0.5" gradientTransform="matrix(1, 0, 0, -1, 0, 42.329)" xlink:href="#radial-gradient"/>
    <clipPath id="clip-path-40">
      <path id="Path_130" data-name="Path 130" d="M2484.955,2398.131a36.55,36.55,0,1,1-36.551-36.55,36.519,36.519,0,0,1,36.551,36.55" transform="translate(-2411.854 -2361.581)" fill="none"/>
    </clipPath>
    <radialGradient id="radial-gradient-12" r="0.5" gradientTransform="matrix(1, 0, 0, -1, 0, 34.175)" xlink:href="#radial-gradient"/>
    <clipPath id="clip-path-43">
      <path id="Path_131" data-name="Path 131" d="M3140.813,2765.272a29.34,29.34,0,1,1-29.34-29.34,29.426,29.426,0,0,1,29.34,29.34" transform="translate(-3082.133 -2735.932)" fill="none"/>
    </clipPath>
    <radialGradient id="radial-gradient-13" r="0.5" gradientTransform="matrix(1, 0, 0, -1, 0, 36.519)" xlink:href="#radial-gradient"/>
    <clipPath id="clip-path-45">
      <path id="Path_132" data-name="Path 132" d="M3140.042,2757.29a36.55,36.55,0,1,1-36.551-36.55,36.519,36.519,0,0,1,36.551,36.55" transform="translate(-3066.941 -2720.74)" fill="none"/>
    </clipPath>
    <radialGradient id="radial-gradient-14" r="0.5" gradientTransform="matrix(1, 0, 0, -1, 0.001, 29.511)" xlink:href="#radial-gradient"/>
    <clipPath id="clip-path-46">
      <rect id="Rectangle_141" data-name="Rectangle 141" width="58.682" height="58.677" fill="none"/>
    </clipPath>
    <clipPath id="clip-path-47">
      <rect id="Rectangle_138" data-name="Rectangle 138" width="47.101" height="47.106" fill="none"/>
    </clipPath>
    <clipPath id="clip-path-48">
      <path id="Path_133" data-name="Path 133" d="M3225.9,2212.5a23.552,23.552,0,1,1-23.552-23.552A23.621,23.621,0,0,1,3225.9,2212.5" transform="translate(-3178.796 -2188.951)" fill="none"/>
    </clipPath>
    <radialGradient id="radial-gradient-15" r="0.5" gradientTransform="matrix(1, 0, 0, -1, 0, 56.517)" xlink:href="#radial-gradient"/>
    <clipPath id="clip-path-50">
      <path id="Path_134" data-name="Path 134" d="M3225.281,2206.1a29.34,29.34,0,1,1-29.34-29.341,29.315,29.315,0,0,1,29.34,29.341" transform="translate(-3166.601 -2176.755)" fill="none"/>
    </clipPath>
    <radialGradient id="radial-gradient-16" r="0.5" gradientTransform="matrix(1, 0, 0, -1, 0.001, 45.563)" xlink:href="#radial-gradient"/>
    <clipPath id="clip-path-53">
      <path id="Path_135" data-name="Path 135" d="M2383.913,2729.757a23.552,23.552,0,1,1-23.552-23.552,23.621,23.621,0,0,1,23.552,23.552" transform="translate(-2336.809 -2706.205)" fill="none"/>
    </clipPath>
    <radialGradient id="radial-gradient-17" r="0.5" gradientTransform="matrix(1, 0, 0, -1, 0, 46.093)" xlink:href="#radial-gradient"/>
    <clipPath id="clip-path-55">
      <path id="Path_136" data-name="Path 136" d="M2383.294,2723.35a29.34,29.34,0,1,1-29.34-29.34,29.315,29.315,0,0,1,29.34,29.34" transform="translate(-2324.614 -2694.01)" fill="none"/>
    </clipPath>
    <radialGradient id="radial-gradient-18" r="0.5" gradientTransform="matrix(1, 0, 0, -1, 0, 37.197)" xlink:href="#radial-gradient"/>
    <clipPath id="clip-path-57">
      <rect id="Rectangle_148" data-name="Rectangle 148" width="58.677" height="58.677" fill="none"/>
    </clipPath>
    <clipPath id="clip-path-58">
      <path id="Path_137" data-name="Path 137" d="M3487.547,2433.845a29.34,29.34,0,1,1-29.34-29.339,29.426,29.426,0,0,1,29.34,29.339" transform="translate(-3428.867 -2404.506)" fill="none"/>
    </clipPath>
    <radialGradient id="radial-gradient-19" r="0.5" gradientTransform="matrix(1, 0, 0, -1, 0, 41.88)" xlink:href="#radial-gradient"/>
    <clipPath id="clip-path-60">
      <path id="Path_138" data-name="Path 138" d="M3486.776,2425.864a36.55,36.55,0,1,1-36.551-36.55,36.52,36.52,0,0,1,36.551,36.55" transform="translate(-3413.676 -2389.314)" fill="none"/>
    </clipPath>
    <radialGradient id="radial-gradient-20" r="0.5" gradientTransform="matrix(1, 0, 0, -1, 0.001, 33.815)" xlink:href="#radial-gradient"/>
    <clipPath id="clip-path-61">
      <rect id="Rectangle_156" data-name="Rectangle 156" width="92.185" height="92.185" fill="none"/>
    </clipPath>
    <clipPath id="clip-path-62">
      <rect id="Rectangle_153" data-name="Rectangle 153" width="73.998" height="74.002" fill="none"/>
    </clipPath>
    <clipPath id="clip-path-63">
      <path id="Path_139" data-name="Path 139" d="M3170.616,3093.224a37,37,0,1,1-37-37,37.108,37.108,0,0,1,37,37" transform="translate(-3096.616 -3056.224)" fill="none"/>
    </clipPath>
    <radialGradient id="radial-gradient-21" r="0.5" gradientTransform="matrix(1, 0, 0, -1, 0, 24.85)" xlink:href="#radial-gradient"/>
    <clipPath id="clip-path-65">
      <path id="Path_140" data-name="Path 140" d="M3169.643,3083.158a46.092,46.092,0,1,1-46.092-46.093,46.053,46.053,0,0,1,46.092,46.093" transform="translate(-3077.458 -3037.065)" fill="none"/>
    </clipPath>
    <radialGradient id="radial-gradient-22" r="0.5" gradientTransform="matrix(1, 0, 0, -1, 0, 20.145)" xlink:href="#radial-gradient"/>
    <clipPath id="clip-path-67">
      <rect id="Rectangle_158" data-name="Rectangle 158" width="74.002" height="73.998" fill="none"/>
    </clipPath>
    <clipPath id="clip-path-68">
      <path id="Path_141" data-name="Path 141" d="M3596.853,2738.688a37,37,0,1,1-37-37,37.108,37.108,0,0,1,37,37" transform="translate(-3522.854 -2701.688)" fill="none"/>
    </clipPath>
    <radialGradient id="radial-gradient-23" r="0.5" gradientTransform="matrix(1, 0, 0, -1, 0, 29.398)" xlink:href="#radial-gradient"/>
    <clipPath id="clip-path-70">
      <path id="Path_142" data-name="Path 142" d="M3595.881,2728.622a46.093,46.093,0,1,1-46.093-46.093,46.053,46.053,0,0,1,46.093,46.093" transform="translate(-3503.696 -2682.53)" fill="none"/>
    </clipPath>
    <radialGradient id="radial-gradient-24" r="0.5" gradientTransform="matrix(1, 0, 0, -1, 0, 23.795)" xlink:href="#radial-gradient"/>
    <clipPath id="clip-path-71">
      <rect id="Rectangle_166" data-name="Rectangle 166" width="118.498" height="118.503" fill="none"/>
    </clipPath>
    <clipPath id="clip-path-72">
      <rect id="Rectangle_163" data-name="Rectangle 163" width="95.123" height="95.123" fill="none"/>
    </clipPath>
    <clipPath id="clip-path-73">
      <path id="Path_143" data-name="Path 143" d="M4145.579,2581.537a47.562,47.562,0,1,1-47.562-47.561,47.7,47.7,0,0,1,47.562,47.561" transform="translate(-4050.456 -2533.977)" fill="none"/>
    </clipPath>
    <radialGradient id="radial-gradient-25" r="0.5" gradientTransform="matrix(1, 0, 0, -1, 0, 24.543)" xlink:href="#radial-gradient"/>
    <clipPath id="clip-path-75">
      <path id="Path_144" data-name="Path 144" d="M4144.329,2568.6a59.251,59.251,0,1,1-59.251-59.251,59.2,59.2,0,0,1,59.251,59.251" transform="translate(-4025.827 -2509.348)" fill="none"/>
    </clipPath>
    <radialGradient id="radial-gradient-26" r="0.5" gradientTransform="matrix(1, 0, 0, -1, 0, 19.898)" xlink:href="#radial-gradient"/>
    <clipPath id="clip-path-78">
      <path id="Path_145" data-name="Path 145" d="M3925.2,2016.426a29.34,29.34,0,1,1-29.339-29.34,29.426,29.426,0,0,1,29.339,29.34" transform="translate(-3866.524 -1987.086)" fill="none"/>
    </clipPath>
    <radialGradient id="radial-gradient-27" r="0.5" gradientTransform="matrix(1, 0, 0, -1, 0, 48.633)" xlink:href="#radial-gradient"/>
    <clipPath id="clip-path-80">
      <path id="Path_146" data-name="Path 146" d="M3924.433,2008.444a36.55,36.55,0,1,1-36.55-36.55,36.52,36.52,0,0,1,36.55,36.55" transform="translate(-3851.332 -1971.894)" fill="none"/>
    </clipPath>
    <radialGradient id="radial-gradient-28" r="0.5" gradientTransform="matrix(1, 0, 0, -1, 0.001, 39.235)" xlink:href="#radial-gradient"/>
    <clipPath id="clip-path-83">
      <path id="Path_147" data-name="Path 147" d="M2879.489,2785.576a23.552,23.552,0,1,1-23.552-23.552,23.621,23.621,0,0,1,23.552,23.552" transform="translate(-2832.385 -2762.024)" fill="none"/>
    </clipPath>
    <radialGradient id="radial-gradient-29" r="0.5" gradientTransform="matrix(1, 0, 0, -1, 0, 44.968)" xlink:href="#radial-gradient"/>
    <clipPath id="clip-path-85">
      <path id="Path_148" data-name="Path 148" d="M2878.87,2779.169a29.34,29.34,0,1,1-29.34-29.34,29.315,29.315,0,0,1,29.34,29.34" transform="translate(-2820.19 -2749.829)" fill="none"/>
    </clipPath>
    <radialGradient id="radial-gradient-30" r="0.5" gradientTransform="matrix(1, 0, 0, -1, 0.001, 36.293)" xlink:href="#radial-gradient"/>
    <clipPath id="clip-path-86">
      <rect id="Rectangle_181" data-name="Rectangle 181" width="122.769" height="122.774" fill="none"/>
    </clipPath>
    <clipPath id="clip-path-87">
      <rect id="Rectangle_178" data-name="Rectangle 178" width="98.55" height="98.554" fill="none"/>
    </clipPath>
    <clipPath id="clip-path-88">
      <path id="Path_149" data-name="Path 149" d="M1746.356,2376.239a49.275,49.275,0,1,1-49.275-49.275,49.421,49.421,0,0,1,49.275,49.275" transform="translate(-1647.805 -2326.964)" fill="none"/>
    </clipPath>
    <radialGradient id="radial-gradient-31" r="0.5" gradientTransform="matrix(1, 0, 0, -1, 0, 25.684)" xlink:href="#radial-gradient"/>
    <clipPath id="clip-path-90">
      <path id="Path_150" data-name="Path 150" d="M1745.06,2362.834a61.385,61.385,0,1,1-61.385-61.385,61.332,61.332,0,0,1,61.385,61.385" transform="translate(-1622.29 -2301.449)" fill="none"/>
    </clipPath>
    <radialGradient id="radial-gradient-32" r="0.5" gradientTransform="matrix(1, 0, 0, -1, 0, 20.814)" xlink:href="#radial-gradient"/>
    <clipPath id="clip-path-93">
      <path id="Path_151" data-name="Path 151" d="M3767.271,3212.974A49.275,49.275,0,1,1,3718,3163.7a49.421,49.421,0,0,1,49.276,49.275" transform="translate(-3668.72 -3163.698)" fill="none"/>
    </clipPath>
    <radialGradient id="radial-gradient-33" r="0.5" gradientTransform="matrix(1, 0, 0, -1, 0, 17.624)" xlink:href="#radial-gradient"/>
    <clipPath id="clip-path-95">
      <path id="Path_152" data-name="Path 152" d="M3765.976,3199.568a61.385,61.385,0,1,1-61.385-61.385,61.334,61.334,0,0,1,61.385,61.385" transform="translate(-3643.205 -3138.183)" fill="none"/>
    </clipPath>
    <radialGradient id="radial-gradient-34" r="0.5" gradientTransform="matrix(1, 0, 0, -1, 0, 14.344)" xlink:href="#radial-gradient"/>
  </defs>
  <g id="Mask_Group_267" data-name="Mask Group 267" transform="translate(69 132)" clip-path="url(#clip-path)">
    <g id="Group_761" data-name="Group 761" transform="translate(-577.903 -1169.951)">
      <g id="Group_760" data-name="Group 760" clip-path="url(#clip-path-2)">
        <g id="Group_522" data-name="Group 522" transform="translate(499.656 710.376)">
          <g id="Group_521" data-name="Group 521" clip-path="url(#clip-path-3)">
            <rect id="Rectangle_94" data-name="Rectangle 94" width="1515.85" height="1901.827" transform="translate(-336.587 809.239) rotate(-67.416)" fill="url(#linear-gradient)"/>
          </g>
        </g>
        <g id="Group_759" data-name="Group 759" transform="translate(499.656 710.376)">
          <g id="Group_758" data-name="Group 758" clip-path="url(#clip-path-4)">
            <g id="Group_529" data-name="Group 529" transform="translate(-499.656 -710.376)" opacity="0.86" style="mix-blend-mode: overlay;isolation: isolate">
              <g id="Group_528" data-name="Group 528">
                <g id="Group_527" data-name="Group 527" clip-path="url(#clip-path-2)">
                  <g id="Group_524" data-name="Group 524" transform="translate(0 -0.002)">
                    <g id="Group_523" data-name="Group 523" clip-path="url(#clip-path-6)">
                      <rect id="Rectangle_96" data-name="Rectangle 96" width="2033.84" height="1992.482" transform="translate(-699.708 1066.912) rotate(-56.742)" fill="url(#linear-gradient-2)"/>
                    </g>
                  </g>
                  <g id="Group_526" data-name="Group 526" transform="translate(1283.039 844.818)">
                    <g id="Group_525" data-name="Group 525" clip-path="url(#clip-path-7)">
                      <rect id="Rectangle_97" data-name="Rectangle 97" width="2023.344" height="1976.028" transform="translate(-681.054 1107.745) rotate(-58.463)" fill="url(#linear-gradient-3)"/>
                    </g>
                  </g>
                </g>
              </g>
            </g>
            <g id="Group_536" data-name="Group 536" transform="translate(-45.821 -306.671)" opacity="0.86" style="mix-blend-mode: color-dodge;isolation: isolate">
              <g id="Group_535" data-name="Group 535">
                <g id="Group_534" data-name="Group 534" clip-path="url(#clip-path-8)">
                  <g id="Group_531" data-name="Group 531" transform="translate(0 -0.001)">
                    <g id="Group_530" data-name="Group 530" clip-path="url(#clip-path-9)">
                      <rect id="Rectangle_99" data-name="Rectangle 99" width="1340.948" height="1313.679" transform="translate(-461.331 703.434) rotate(-56.742)" fill="url(#linear-gradient-4)"/>
                    </g>
                  </g>
                  <g id="Group_533" data-name="Group 533" transform="translate(845.931 557.005)">
                    <g id="Group_532" data-name="Group 532" clip-path="url(#clip-path-10)">
                      <rect id="Rectangle_100" data-name="Rectangle 100" width="1334.027" height="1302.831" transform="translate(-449.032 730.356) rotate(-58.463)" fill="url(#linear-gradient-5)"/>
                    </g>
                  </g>
                </g>
              </g>
            </g>
            <g id="Group_549" data-name="Group 549" transform="translate(310.293 45.87)" opacity="0.57">
              <g id="Group_548" data-name="Group 548">
                <g id="Group_547" data-name="Group 547" clip-path="url(#clip-path-11)">
                  <g id="Group_541" data-name="Group 541" transform="translate(12.112 12.108)" style="mix-blend-mode: screen;isolation: isolate">
                    <g id="Group_540" data-name="Group 540">
                      <g id="Group_539" data-name="Group 539" clip-path="url(#clip-path-12)">
                        <g id="Group_538" data-name="Group 538" transform="translate(-0.001 0)">
                          <g id="Group_537" data-name="Group 537" clip-path="url(#clip-path-13)">
                            <rect id="Rectangle_102" data-name="Rectangle 102" width="98.55" height="98.551" transform="translate(0 0)" fill="url(#radial-gradient)"/>
                          </g>
                        </g>
                      </g>
                    </g>
                  </g>
                  <g id="Group_546" data-name="Group 546" style="mix-blend-mode: color-dodge;isolation: isolate">
                    <g id="Group_545" data-name="Group 545">
                      <g id="Group_544" data-name="Group 544" clip-path="url(#clip-path-11)">
                        <g id="Group_543" data-name="Group 543" transform="translate(0.001 -0.002)">
                          <g id="Group_542" data-name="Group 542" clip-path="url(#clip-path-15)">
                            <rect id="Rectangle_104" data-name="Rectangle 104" width="122.77" height="122.773" transform="translate(0 0)" fill="url(#radial-gradient-2)"/>
                          </g>
                        </g>
                      </g>
                    </g>
                  </g>
                </g>
              </g>
            </g>
            <g id="Group_562" data-name="Group 562" transform="translate(409.512 294.247)" opacity="0.57">
              <g id="Group_561" data-name="Group 561">
                <g id="Group_560" data-name="Group 560" clip-path="url(#clip-path-16)">
                  <g id="Group_554" data-name="Group 554" transform="translate(8.985 8.984)" style="mix-blend-mode: screen;isolation: isolate">
                    <g id="Group_553" data-name="Group 553">
                      <g id="Group_552" data-name="Group 552" clip-path="url(#clip-path-17)">
                        <g id="Group_551" data-name="Group 551" transform="translate(0 -0.002)">
                          <g id="Group_550" data-name="Group 550" clip-path="url(#clip-path-18)">
                            <rect id="Rectangle_107" data-name="Rectangle 107" width="73.101" height="73.101" transform="translate(0 0)" fill="url(#radial-gradient-3)"/>
                          </g>
                        </g>
                      </g>
                    </g>
                  </g>
                  <g id="Group_559" data-name="Group 559" style="mix-blend-mode: color-dodge;isolation: isolate">
                    <g id="Group_558" data-name="Group 558">
                      <g id="Group_557" data-name="Group 557" clip-path="url(#clip-path-16)">
                        <g id="Group_556" data-name="Group 556" transform="translate(0.002 0.001)">
                          <g id="Group_555" data-name="Group 555" clip-path="url(#clip-path-20)">
                            <rect id="Rectangle_109" data-name="Rectangle 109" width="91.066" height="91.068" transform="translate(0 0)" fill="url(#radial-gradient-4)"/>
                          </g>
                        </g>
                      </g>
                    </g>
                  </g>
                </g>
              </g>
            </g>
            <g id="Group_575" data-name="Group 575" transform="translate(470.866 452.262)" opacity="0.57">
              <g id="Group_574" data-name="Group 574">
                <g id="Group_573" data-name="Group 573" clip-path="url(#clip-path-17)">
                  <g id="Group_567" data-name="Group 567" transform="translate(7.209 7.21)" style="mix-blend-mode: screen;isolation: isolate">
                    <g id="Group_566" data-name="Group 566">
                      <g id="Group_565" data-name="Group 565" clip-path="url(#clip-path-22)">
                        <g id="Group_564" data-name="Group 564" transform="translate(0.002 -0.001)">
                          <g id="Group_563" data-name="Group 563" clip-path="url(#clip-path-23)">
                            <rect id="Rectangle_112" data-name="Rectangle 112" width="58.679" height="58.68" transform="translate(0 0)" fill="url(#radial-gradient-5)"/>
                          </g>
                        </g>
                      </g>
                    </g>
                  </g>
                  <g id="Group_572" data-name="Group 572" style="mix-blend-mode: color-dodge;isolation: isolate">
                    <g id="Group_571" data-name="Group 571">
                      <g id="Group_570" data-name="Group 570" clip-path="url(#clip-path-17)">
                        <g id="Group_569" data-name="Group 569" transform="translate(0 -0.002)">
                          <g id="Group_568" data-name="Group 568" clip-path="url(#clip-path-25)">
                            <rect id="Rectangle_114" data-name="Rectangle 114" width="73.101" height="73.103" transform="translate(0 0)" fill="url(#radial-gradient-6)"/>
                          </g>
                        </g>
                      </g>
                    </g>
                  </g>
                </g>
              </g>
            </g>
            <g id="Group_588" data-name="Group 588" transform="translate(587.802 258.646)" opacity="0.57">
              <g id="Group_587" data-name="Group 587">
                <g id="Group_586" data-name="Group 586" clip-path="url(#clip-path-17)">
                  <g id="Group_580" data-name="Group 580" transform="translate(7.209 7.209)" style="mix-blend-mode: screen;isolation: isolate">
                    <g id="Group_579" data-name="Group 579">
                      <g id="Group_578" data-name="Group 578" clip-path="url(#clip-path-22)">
                        <g id="Group_577" data-name="Group 577" transform="translate(0.001 0.001)">
                          <g id="Group_576" data-name="Group 576" clip-path="url(#clip-path-28)">
                            <rect id="Rectangle_117" data-name="Rectangle 117" width="58.679" height="58.68" transform="translate(0 0)" fill="url(#radial-gradient-7)"/>
                          </g>
                        </g>
                      </g>
                    </g>
                  </g>
                  <g id="Group_585" data-name="Group 585" style="mix-blend-mode: color-dodge;isolation: isolate">
                    <g id="Group_584" data-name="Group 584">
                      <g id="Group_583" data-name="Group 583" clip-path="url(#clip-path-17)">
                        <g id="Group_582" data-name="Group 582" transform="translate(0 -0.001)">
                          <g id="Group_581" data-name="Group 581" clip-path="url(#clip-path-30)">
                            <rect id="Rectangle_119" data-name="Rectangle 119" width="73.101" height="73.103" transform="translate(0 0)" fill="url(#radial-gradient-8)"/>
                          </g>
                        </g>
                      </g>
                    </g>
                  </g>
                </g>
              </g>
            </g>
            <g id="Group_601" data-name="Group 601" transform="translate(704.173 229.305)" opacity="0.57">
              <g id="Group_600" data-name="Group 600">
                <g id="Group_599" data-name="Group 599" clip-path="url(#clip-path-17)">
                  <g id="Group_593" data-name="Group 593" transform="translate(7.214 7.21)" style="mix-blend-mode: screen;isolation: isolate">
                    <g id="Group_592" data-name="Group 592">
                      <g id="Group_591" data-name="Group 591" clip-path="url(#clip-path-32)">
                        <g id="Group_590" data-name="Group 590" transform="translate(-0.002 0.001)">
                          <g id="Group_589" data-name="Group 589" clip-path="url(#clip-path-33)">
                            <rect id="Rectangle_122" data-name="Rectangle 122" width="58.68" height="58.68" transform="translate(0 0)" fill="url(#radial-gradient-9)"/>
                          </g>
                        </g>
                      </g>
                    </g>
                  </g>
                  <g id="Group_598" data-name="Group 598" style="mix-blend-mode: color-dodge;isolation: isolate">
                    <g id="Group_597" data-name="Group 597">
                      <g id="Group_596" data-name="Group 596" clip-path="url(#clip-path-17)">
                        <g id="Group_595" data-name="Group 595" transform="translate(0.002 0)">
                          <g id="Group_594" data-name="Group 594" clip-path="url(#clip-path-35)">
                            <rect id="Rectangle_124" data-name="Rectangle 124" width="73.101" height="73.103" transform="translate(0 0)" fill="url(#radial-gradient-10)"/>
                          </g>
                        </g>
                      </g>
                    </g>
                  </g>
                </g>
              </g>
            </g>
            <g id="Group_614" data-name="Group 614" transform="translate(645.05 410.472)" opacity="0.57">
              <g id="Group_613" data-name="Group 613">
                <g id="Group_612" data-name="Group 612" clip-path="url(#clip-path-36)">
                  <g id="Group_606" data-name="Group 606" transform="translate(7.214 7.209)" style="mix-blend-mode: screen;isolation: isolate">
                    <g id="Group_605" data-name="Group 605">
                      <g id="Group_604" data-name="Group 604" clip-path="url(#clip-path-32)">
                        <g id="Group_603" data-name="Group 603" transform="translate(-0.002 0.001)">
                          <g id="Group_602" data-name="Group 602" clip-path="url(#clip-path-38)">
                            <rect id="Rectangle_127" data-name="Rectangle 127" width="58.68" height="58.68" transform="translate(0 0)" fill="url(#radial-gradient-11)"/>
                          </g>
                        </g>
                      </g>
                    </g>
                  </g>
                  <g id="Group_611" data-name="Group 611" style="mix-blend-mode: color-dodge;isolation: isolate">
                    <g id="Group_610" data-name="Group 610">
                      <g id="Group_609" data-name="Group 609" clip-path="url(#clip-path-36)">
                        <g id="Group_608" data-name="Group 608" transform="translate(0.002 0)">
                          <g id="Group_607" data-name="Group 607" clip-path="url(#clip-path-40)">
                            <rect id="Rectangle_129" data-name="Rectangle 129" width="73.101" height="73.102" transform="translate(0 0)" fill="url(#radial-gradient-12)"/>
                          </g>
                        </g>
                      </g>
                    </g>
                  </g>
                </g>
              </g>
            </g>
            <g id="Group_627" data-name="Group 627" transform="translate(955.968 580.935)" opacity="0.57">
              <g id="Group_626" data-name="Group 626">
                <g id="Group_625" data-name="Group 625" clip-path="url(#clip-path-17)">
                  <g id="Group_619" data-name="Group 619" transform="translate(7.209 7.209)" style="mix-blend-mode: screen;isolation: isolate">
                    <g id="Group_618" data-name="Group 618">
                      <g id="Group_617" data-name="Group 617" clip-path="url(#clip-path-22)">
                        <g id="Group_616" data-name="Group 616" transform="translate(0.002 0.001)">
                          <g id="Group_615" data-name="Group 615" clip-path="url(#clip-path-43)">
                            <rect id="Rectangle_132" data-name="Rectangle 132" width="58.68" height="58.68" transform="translate(0 0)" fill="url(#radial-gradient-13)"/>
                          </g>
                        </g>
                      </g>
                    </g>
                  </g>
                  <g id="Group_624" data-name="Group 624" style="mix-blend-mode: color-dodge;isolation: isolate">
                    <g id="Group_623" data-name="Group 623">
                      <g id="Group_622" data-name="Group 622" clip-path="url(#clip-path-17)">
                        <g id="Group_621" data-name="Group 621" transform="translate(0 0)">
                          <g id="Group_620" data-name="Group 620" clip-path="url(#clip-path-45)">
                            <rect id="Rectangle_134" data-name="Rectangle 134" width="73.101" height="73.102" transform="translate(0 0)" fill="url(#radial-gradient-14)"/>
                          </g>
                        </g>
                      </g>
                    </g>
                  </g>
                </g>
              </g>
            </g>
            <g id="Group_640" data-name="Group 640" transform="translate(1003.268 322.753)" opacity="0.57">
              <g id="Group_639" data-name="Group 639">
                <g id="Group_638" data-name="Group 638" clip-path="url(#clip-path-46)">
                  <g id="Group_632" data-name="Group 632" transform="translate(5.79 5.786)" style="mix-blend-mode: screen;isolation: isolate">
                    <g id="Group_631" data-name="Group 631">
                      <g id="Group_630" data-name="Group 630" clip-path="url(#clip-path-47)">
                        <g id="Group_629" data-name="Group 629" transform="translate(-0.002 0)">
                          <g id="Group_628" data-name="Group 628" clip-path="url(#clip-path-48)">
                            <rect id="Rectangle_137" data-name="Rectangle 137" width="47.104" height="47.104" transform="translate(0)" fill="url(#radial-gradient-15)"/>
                          </g>
                        </g>
                      </g>
                    </g>
                  </g>
                  <g id="Group_637" data-name="Group 637" style="mix-blend-mode: color-dodge;isolation: isolate">
                    <g id="Group_636" data-name="Group 636">
                      <g id="Group_635" data-name="Group 635" clip-path="url(#clip-path-46)">
                        <g id="Group_634" data-name="Group 634" transform="translate(0 -0.003)">
                          <g id="Group_633" data-name="Group 633" clip-path="url(#clip-path-50)">
                            <rect id="Rectangle_139" data-name="Rectangle 139" width="58.68" height="58.681" transform="translate(0 0)" fill="url(#radial-gradient-16)"/>
                          </g>
                        </g>
                      </g>
                    </g>
                  </g>
                </g>
              </g>
            </g>
            <g id="Group_653" data-name="Group 653" transform="translate(603.645 568.249)" opacity="0.57">
              <g id="Group_652" data-name="Group 652">
                <g id="Group_651" data-name="Group 651" clip-path="url(#clip-path-22)">
                  <g id="Group_645" data-name="Group 645" transform="translate(5.79 5.786)" style="mix-blend-mode: screen;isolation: isolate">
                    <g id="Group_644" data-name="Group 644">
                      <g id="Group_643" data-name="Group 643" clip-path="url(#clip-path-47)">
                        <g id="Group_642" data-name="Group 642" transform="translate(0 0.002)">
                          <g id="Group_641" data-name="Group 641" clip-path="url(#clip-path-53)">
                            <rect id="Rectangle_142" data-name="Rectangle 142" width="47.103" height="47.103" transform="translate(0 0)" fill="url(#radial-gradient-17)"/>
                          </g>
                        </g>
                      </g>
                    </g>
                  </g>
                  <g id="Group_650" data-name="Group 650" style="mix-blend-mode: color-dodge;isolation: isolate">
                    <g id="Group_649" data-name="Group 649">
                      <g id="Group_648" data-name="Group 648" clip-path="url(#clip-path-22)">
                        <g id="Group_647" data-name="Group 647" transform="translate(0.002 0)">
                          <g id="Group_646" data-name="Group 646" clip-path="url(#clip-path-55)">
                            <rect id="Rectangle_144" data-name="Rectangle 144" width="58.68" height="58.681" transform="translate(0 0)" fill="url(#radial-gradient-18)"/>
                          </g>
                        </g>
                      </g>
                    </g>
                  </g>
                </g>
              </g>
            </g>
            <g id="Group_666" data-name="Group 666" transform="translate(1120.532 423.633)" opacity="0.57">
              <g id="Group_665" data-name="Group 665">
                <g id="Group_664" data-name="Group 664" clip-path="url(#clip-path-36)">
                  <g id="Group_658" data-name="Group 658" transform="translate(7.214 7.214)" style="mix-blend-mode: screen;isolation: isolate">
                    <g id="Group_657" data-name="Group 657">
                      <g id="Group_656" data-name="Group 656" clip-path="url(#clip-path-57)">
                        <g id="Group_655" data-name="Group 655" transform="translate(-0.002 -0.002)">
                          <g id="Group_654" data-name="Group 654" clip-path="url(#clip-path-58)">
                            <rect id="Rectangle_147" data-name="Rectangle 147" width="58.68" height="58.68" transform="translate(0 0)" fill="url(#radial-gradient-19)"/>
                          </g>
                        </g>
                      </g>
                    </g>
                  </g>
                  <g id="Group_663" data-name="Group 663" style="mix-blend-mode: color-dodge;isolation: isolate">
                    <g id="Group_662" data-name="Group 662">
                      <g id="Group_661" data-name="Group 661" clip-path="url(#clip-path-36)">
                        <g id="Group_660" data-name="Group 660" transform="translate(0.002 0.002)">
                          <g id="Group_659" data-name="Group 659" clip-path="url(#clip-path-60)">
                            <rect id="Rectangle_149" data-name="Rectangle 149" width="73.101" height="73.102" transform="translate(0 0)" fill="url(#radial-gradient-20)"/>
                          </g>
                        </g>
                      </g>
                    </g>
                  </g>
                </g>
              </g>
            </g>
            <g id="Group_679" data-name="Group 679" transform="translate(960.961 731.071)" opacity="0.57">
              <g id="Group_678" data-name="Group 678">
                <g id="Group_677" data-name="Group 677" clip-path="url(#clip-path-61)">
                  <g id="Group_671" data-name="Group 671" transform="translate(9.094 9.089)" style="mix-blend-mode: screen;isolation: isolate">
                    <g id="Group_670" data-name="Group 670">
                      <g id="Group_669" data-name="Group 669" clip-path="url(#clip-path-62)">
                        <g id="Group_668" data-name="Group 668" transform="translate(-0.002 0.002)">
                          <g id="Group_667" data-name="Group 667" clip-path="url(#clip-path-63)">
                            <rect id="Rectangle_152" data-name="Rectangle 152" width="74" height="73.999" transform="translate(0 0)" fill="url(#radial-gradient-21)"/>
                          </g>
                        </g>
                      </g>
                    </g>
                  </g>
                  <g id="Group_676" data-name="Group 676" style="mix-blend-mode: color-dodge;isolation: isolate">
                    <g id="Group_675" data-name="Group 675">
                      <g id="Group_674" data-name="Group 674" clip-path="url(#clip-path-61)">
                        <g id="Group_673" data-name="Group 673" transform="translate(-0.001 -0.003)">
                          <g id="Group_672" data-name="Group 672" clip-path="url(#clip-path-65)">
                            <rect id="Rectangle_154" data-name="Rectangle 154" width="92.185" height="92.188" transform="translate(0 0)" fill="url(#radial-gradient-22)"/>
                          </g>
                        </g>
                      </g>
                    </g>
                  </g>
                </g>
              </g>
            </g>
            <g id="Group_692" data-name="Group 692" transform="translate(1163.262 562.8)" opacity="0.57">
              <g id="Group_691" data-name="Group 691">
                <g id="Group_690" data-name="Group 690" clip-path="url(#clip-path-61)">
                  <g id="Group_684" data-name="Group 684" transform="translate(9.089 9.094)" style="mix-blend-mode: screen;isolation: isolate">
                    <g id="Group_683" data-name="Group 683">
                      <g id="Group_682" data-name="Group 682" clip-path="url(#clip-path-67)">
                        <g id="Group_681" data-name="Group 681" transform="translate(0.002 -0.001)">
                          <g id="Group_680" data-name="Group 680" clip-path="url(#clip-path-68)">
                            <rect id="Rectangle_157" data-name="Rectangle 157" width="73.999" height="73.999" transform="translate(0 0)" fill="url(#radial-gradient-23)"/>
                          </g>
                        </g>
                      </g>
                    </g>
                  </g>
                  <g id="Group_689" data-name="Group 689" style="mix-blend-mode: color-dodge;isolation: isolate">
                    <g id="Group_688" data-name="Group 688">
                      <g id="Group_687" data-name="Group 687" clip-path="url(#clip-path-61)">
                        <g id="Group_686" data-name="Group 686" transform="translate(-0.002 -0.001)">
                          <g id="Group_685" data-name="Group 685" clip-path="url(#clip-path-70)">
                            <rect id="Rectangle_159" data-name="Rectangle 159" width="92.185" height="92.187" transform="translate(0 0)" fill="url(#radial-gradient-24)"/>
                          </g>
                        </g>
                      </g>
                    </g>
                  </g>
                </g>
              </g>
            </g>
            <g id="Group_705" data-name="Group 705" transform="translate(1411.074 480.606)" opacity="0.57">
              <g id="Group_704" data-name="Group 704">
                <g id="Group_703" data-name="Group 703" clip-path="url(#clip-path-71)">
                  <g id="Group_697" data-name="Group 697" transform="translate(11.69 11.69)" style="mix-blend-mode: screen;isolation: isolate">
                    <g id="Group_696" data-name="Group 696">
                      <g id="Group_695" data-name="Group 695" clip-path="url(#clip-path-72)">
                        <g id="Group_694" data-name="Group 694" transform="translate(-0.002 -0.002)">
                          <g id="Group_693" data-name="Group 693" clip-path="url(#clip-path-73)">
                            <rect id="Rectangle_162" data-name="Rectangle 162" width="95.124" height="95.124" transform="translate(0 0)" fill="url(#radial-gradient-25)"/>
                          </g>
                        </g>
                      </g>
                    </g>
                  </g>
                  <g id="Group_702" data-name="Group 702" style="mix-blend-mode: color-dodge;isolation: isolate">
                    <g id="Group_701" data-name="Group 701">
                      <g id="Group_700" data-name="Group 700" clip-path="url(#clip-path-71)">
                        <g id="Group_699" data-name="Group 699" transform="translate(-0.002 -0.001)">
                          <g id="Group_698" data-name="Group 698" clip-path="url(#clip-path-75)">
                            <rect id="Rectangle_164" data-name="Rectangle 164" width="118.502" height="118.504" transform="translate(0 0)" fill="url(#radial-gradient-26)"/>
                          </g>
                        </g>
                      </g>
                    </g>
                  </g>
                </g>
              </g>
            </g>
            <g id="Group_718" data-name="Group 718" transform="translate(1328.253 225.518)" opacity="0.57">
              <g id="Group_717" data-name="Group 717">
                <g id="Group_716" data-name="Group 716" clip-path="url(#clip-path-36)">
                  <g id="Group_710" data-name="Group 710" transform="translate(7.209 7.214)" style="mix-blend-mode: screen;isolation: isolate">
                    <g id="Group_709" data-name="Group 709">
                      <g id="Group_708" data-name="Group 708" clip-path="url(#clip-path-46)">
                        <g id="Group_707" data-name="Group 707" transform="translate(0.002 -0.002)">
                          <g id="Group_706" data-name="Group 706" clip-path="url(#clip-path-78)">
                            <rect id="Rectangle_167" data-name="Rectangle 167" width="58.679" height="58.68" transform="translate(0 0)" fill="url(#radial-gradient-27)"/>
                          </g>
                        </g>
                      </g>
                    </g>
                  </g>
                  <g id="Group_715" data-name="Group 715" style="mix-blend-mode: color-dodge;isolation: isolate">
                    <g id="Group_714" data-name="Group 714">
                      <g id="Group_713" data-name="Group 713" clip-path="url(#clip-path-36)">
                        <g id="Group_712" data-name="Group 712" transform="translate(0.001 0.002)">
                          <g id="Group_711" data-name="Group 711" clip-path="url(#clip-path-80)">
                            <rect id="Rectangle_169" data-name="Rectangle 169" width="73.101" height="73.102" transform="translate(0 0)" fill="url(#radial-gradient-28)"/>
                          </g>
                        </g>
                      </g>
                    </g>
                  </g>
                </g>
              </g>
            </g>
            <g id="Group_731" data-name="Group 731" transform="translate(838.856 594.742)" opacity="0.57">
              <g id="Group_730" data-name="Group 730">
                <g id="Group_729" data-name="Group 729" clip-path="url(#clip-path-22)">
                  <g id="Group_723" data-name="Group 723" transform="translate(5.79 5.786)" style="mix-blend-mode: screen;isolation: isolate">
                    <g id="Group_722" data-name="Group 722">
                      <g id="Group_721" data-name="Group 721" clip-path="url(#clip-path-47)">
                        <g id="Group_720" data-name="Group 720" transform="translate(-0.002 0.002)">
                          <g id="Group_719" data-name="Group 719" clip-path="url(#clip-path-83)">
                            <rect id="Rectangle_172" data-name="Rectangle 172" width="47.103" height="47.104" transform="translate(0 0)" fill="url(#radial-gradient-29)"/>
                          </g>
                        </g>
                      </g>
                    </g>
                  </g>
                  <g id="Group_728" data-name="Group 728" style="mix-blend-mode: color-dodge;isolation: isolate">
                    <g id="Group_727" data-name="Group 727">
                      <g id="Group_726" data-name="Group 726" clip-path="url(#clip-path-22)">
                        <g id="Group_725" data-name="Group 725" transform="translate(0 -0.001)">
                          <g id="Group_724" data-name="Group 724" clip-path="url(#clip-path-85)">
                            <rect id="Rectangle_174" data-name="Rectangle 174" width="58.68" height="58.681" transform="translate(0)" fill="url(#radial-gradient-30)"/>
                          </g>
                        </g>
                      </g>
                    </g>
                  </g>
                </g>
              </g>
            </g>
            <g id="Group_744" data-name="Group 744" transform="translate(270.311 381.933)" opacity="0.57">
              <g id="Group_743" data-name="Group 743">
                <g id="Group_742" data-name="Group 742" clip-path="url(#clip-path-86)">
                  <g id="Group_736" data-name="Group 736" transform="translate(12.112 12.108)" style="mix-blend-mode: screen;isolation: isolate">
                    <g id="Group_735" data-name="Group 735">
                      <g id="Group_734" data-name="Group 734" clip-path="url(#clip-path-87)">
                        <g id="Group_733" data-name="Group 733" transform="translate(-0.002 0.002)">
                          <g id="Group_732" data-name="Group 732" clip-path="url(#clip-path-88)">
                            <rect id="Rectangle_177" data-name="Rectangle 177" width="98.551" height="98.551" fill="url(#radial-gradient-31)"/>
                          </g>
                        </g>
                      </g>
                    </g>
                  </g>
                  <g id="Group_741" data-name="Group 741" style="mix-blend-mode: color-dodge;isolation: isolate">
                    <g id="Group_740" data-name="Group 740">
                      <g id="Group_739" data-name="Group 739" clip-path="url(#clip-path-86)">
                        <g id="Group_738" data-name="Group 738" transform="translate(0 -0.001)">
                          <g id="Group_737" data-name="Group 737" clip-path="url(#clip-path-90)">
                            <rect id="Rectangle_179" data-name="Rectangle 179" width="122.77" height="122.773" transform="translate(0 0)" fill="url(#radial-gradient-32)"/>
                          </g>
                        </g>
                      </g>
                    </g>
                  </g>
                </g>
              </g>
            </g>
            <g id="Group_757" data-name="Group 757" transform="translate(1229.476 779.06)" opacity="0.57">
              <g id="Group_756" data-name="Group 756">
                <g id="Group_755" data-name="Group 755" clip-path="url(#clip-path-86)">
                  <g id="Group_749" data-name="Group 749" transform="translate(12.108 12.112)" style="mix-blend-mode: screen;isolation: isolate">
                    <g id="Group_748" data-name="Group 748">
                      <g id="Group_747" data-name="Group 747" clip-path="url(#clip-path-12)">
                        <g id="Group_746" data-name="Group 746" transform="translate(0 -0.001)">
                          <g id="Group_745" data-name="Group 745" clip-path="url(#clip-path-93)">
                            <rect id="Rectangle_182" data-name="Rectangle 182" width="98.551" height="98.551" transform="translate(0 0)" fill="url(#radial-gradient-33)"/>
                          </g>
                        </g>
                      </g>
                    </g>
                  </g>
                  <g id="Group_754" data-name="Group 754" style="mix-blend-mode: color-dodge;isolation: isolate">
                    <g id="Group_753" data-name="Group 753">
                      <g id="Group_752" data-name="Group 752" clip-path="url(#clip-path-86)">
                        <g id="Group_751" data-name="Group 751" transform="translate(-0.002 0.001)">
                          <g id="Group_750" data-name="Group 750" clip-path="url(#clip-path-95)">
                            <rect id="Rectangle_184" data-name="Rectangle 184" width="122.77" height="122.773" fill="url(#radial-gradient-34)"/>
                          </g>
                        </g>
                      </g>
                    </g>
                  </g>
                </g>
              </g>
            </g>
          </g>
        </g>
      </g>
    </g>
  </g>
</svg>
