<?xml version="1.0" encoding="UTF-8"?>
<svg xmlns="http://www.w3.org/2000/svg" version="1.1" viewBox="0 0 216 73.79">
  <defs>
    <style>
      .cls-1 {
        fill: #38c0c7;
      }

      .cls-2 {
        isolation: isolate;
      }

      .cls-3 {
        fill: #11203c;
      }
    </style>
  </defs>
  <!-- Generator: Adobe Illustrator 28.7.1, SVG Export Plug-In . SVG Version: 1.2.0 Build 142)  -->
  <g>
    <g id="Layer_1">
      <g>
        <g id="S" class="cls-2">
          <g class="cls-2">
            <path class="cls-1" d="M49.69,49.12c-1.09,1.56-2.61,2.78-4.55,3.63-1.95.86-4.22,1.29-6.83,1.29-2.09,0-4.15-.32-6.19-.94s-3.79-1.46-5.27-2.51l1.15-4.55c1.53,1.1,3.21,1.97,5.01,2.6,1.81.63,3.54.94,5.2.94,1.56,0,2.94-.24,4.12-.71,1.18-.47,2.09-1.15,2.74-2.02.64-.87.97-1.86.97-2.97,0-.83-.21-1.58-.62-2.25-.41-.68-1.1-1.35-2.07-2.02-.97-.67-2.26-1.4-3.89-2.16-1.93-.92-3.47-1.85-4.62-2.78-1.15-.93-1.99-1.97-2.51-3.1s-.78-2.42-.78-3.86c0-1.99.52-3.75,1.56-5.27,1.04-1.52,2.49-2.7,4.35-3.54s3.98-1.27,6.37-1.27c1.2,0,2.38.12,3.57.35,1.18.23,2.33.56,3.45.99,1.12.43,2.12.95,3.01,1.56l-1.2,4.37c-1.41-.89-2.89-1.58-4.44-2.07-1.55-.49-3.03-.74-4.44-.74s-2.61.22-3.68.67c-1.07.45-1.91,1.07-2.51,1.89-.6.81-.9,1.76-.9,2.83,0,.74.18,1.43.55,2.07.37.64.97,1.26,1.79,1.84.83.58,1.92,1.18,3.27,1.79,2.3,1.07,4.1,2.12,5.41,3.13,1.3,1.01,2.23,2.1,2.78,3.27.55,1.17.83,2.56.83,4.19,0,2.02-.54,3.82-1.63,5.38Z"/>
          </g>
        </g>
        <g id="Symbia" class="cls-2">
          <g class="cls-2">
            <path class="cls-3" d="M65.13,49.12c-1.09,1.56-2.61,2.78-4.55,3.63s-4.22,1.29-6.83,1.29c-2.09,0-4.15-.32-6.19-.94-2.04-.63-3.79-1.46-5.27-2.51l1.15-4.55c1.53,1.1,3.2,1.97,5.01,2.6,1.81.63,3.54.94,5.2.94,1.56,0,2.94-.24,4.12-.71,1.18-.47,2.09-1.15,2.74-2.02.64-.87.97-1.86.97-2.97,0-.83-.21-1.58-.62-2.25-.41-.67-1.1-1.35-2.07-2.02-.97-.67-2.26-1.4-3.89-2.16-1.93-.92-3.47-1.85-4.62-2.78-1.15-.93-1.99-1.97-2.51-3.1-.52-1.13-.78-2.42-.78-3.86,0-1.99.52-3.75,1.56-5.27,1.04-1.52,2.49-2.7,4.35-3.54,1.85-.84,3.98-1.27,6.37-1.27,1.2,0,2.38.12,3.56.35,1.18.23,2.33.56,3.45.99,1.12.43,2.12.95,3.01,1.56l-1.2,4.37c-1.41-.89-2.89-1.58-4.44-2.07-1.55-.49-3.03-.74-4.44-.74s-2.61.22-3.68.67c-1.07.45-1.91,1.07-2.51,1.89-.6.81-.9,1.76-.9,2.83,0,.74.18,1.43.55,2.07.37.64.97,1.26,1.79,1.84.83.58,1.92,1.18,3.27,1.79,2.3,1.07,4.1,2.12,5.41,3.13,1.3,1.01,2.23,2.1,2.78,3.27.55,1.17.83,2.56.83,4.19,0,2.02-.54,3.82-1.63,5.38Z"/>
            <path class="cls-3" d="M72.24,64.57h-5.15l9.38-14.31,2.25-2.85,10.35-17.3h5.29l-22.13,34.45ZM70.44,30.12h5.15l4.19,18.58-3.63,3.5-5.7-22.08Z"/>
            <path class="cls-3" d="M97.95,30.12h4.65l-.97,5.57-.37-.69c.52-1.17,1.2-2.16,2.02-2.99s1.76-1.47,2.81-1.93c1.04-.46,2.12-.69,3.22-.69,1.87,0,3.46.58,4.76,1.72,1.3,1.15,2.06,2.68,2.28,4.58l-1.01-.14c.92-1.96,2.18-3.48,3.79-4.55s3.38-1.61,5.31-1.61c2.18,0,3.94.7,5.29,2.09,1.35,1.4,2.02,3.21,2.02,5.45,0,.34-.02.71-.05,1.13-.03.41-.11.87-.23,1.36l-2.67,13.89h-4.88l2.53-13.2c.09-.4.16-.78.21-1.15.05-.37.07-.71.07-1.01,0-1.41-.36-2.47-1.08-3.17-.72-.71-1.77-1.06-3.15-1.06-1.01,0-1.96.29-2.85.87-.89.58-1.65,1.4-2.28,2.44-.63,1.04-1.1,2.27-1.4,3.68l-2.44,12.6h-4.88l2.58-13.2c.06-.37.11-.73.16-1.08.05-.35.07-.7.07-1.04,0-1.38-.34-2.44-1.04-3.17-.69-.74-1.69-1.1-3.01-1.1-1.04,0-2.02.29-2.94.87-.92.58-1.69,1.4-2.32,2.44-.63,1.04-1.1,2.27-1.4,3.68l-2.44,12.6h-4.88l4.51-23.18Z"/>
            <path class="cls-3" d="M142.43,16.04h4.88l-3.77,19.41-.28-.87c.49-1.01,1.18-1.91,2.07-2.69.89-.78,1.89-1.39,3.01-1.84,1.12-.44,2.26-.67,3.43-.67,1.87,0,3.5.45,4.9,1.33,1.39.89,2.48,2.13,3.24,3.73.77,1.6,1.15,3.47,1.15,5.61,0,1.87-.33,3.65-.99,5.34-.66,1.69-1.57,3.18-2.74,4.49-1.17,1.3-2.51,2.32-4.03,3.06-1.52.74-3.12,1.1-4.81,1.1-2.09,0-3.84-.57-5.27-1.7-1.43-1.13-2.39-2.73-2.88-4.78l.87-.6-1.33,6.35h-4.69l7.22-37.26ZM153.33,34.56c-.89-.54-1.96-.8-3.22-.8-1.5,0-2.88.42-4.12,1.26-1.24.84-2.22,1.96-2.94,3.36s-1.08,2.97-1.08,4.71c0,1.35.25,2.52.74,3.52.49,1,1.2,1.76,2.12,2.28s1.99.78,3.22.78c1.5,0,2.87-.41,4.09-1.24s2.21-1.96,2.94-3.38c.74-1.43,1.1-2.98,1.1-4.67,0-1.38-.25-2.56-.76-3.54s-1.2-1.74-2.09-2.28Z"/>
            <path class="cls-3" d="M168.33,30.12h4.88l-4.51,23.18h-4.88l4.51-23.18ZM170.21,19.22c.64-.64,1.46-.97,2.44-.97.83,0,1.51.26,2.05.78.54.52.8,1.21.8,2.07,0,.98-.32,1.79-.97,2.44s-1.46.97-2.44.97c-.83,0-1.51-.26-2.05-.78-.54-.52-.8-1.21-.8-2.07,0-.98.32-1.79.97-2.44Z"/>
            <path class="cls-3" d="M197.31,53.3h-4.69l.92-5.52.32.87c-.46,1.04-1.14,1.97-2.05,2.78-.9.81-1.92,1.45-3.06,1.91-1.13.46-2.3.69-3.5.69-1.9,0-3.55-.45-4.95-1.33-1.4-.89-2.48-2.13-3.24-3.73-.77-1.59-1.15-3.45-1.15-5.57,0-1.9.33-3.69.99-5.38.66-1.69,1.58-3.17,2.76-4.46,1.18-1.29,2.52-2.31,4.03-3.06,1.5-.75,3.1-1.13,4.78-1.13,2.08,0,3.83.57,5.24,1.7,1.41,1.13,2.36,2.76,2.85,4.88l-.87.55,1.38-6.39h4.69l-4.46,23.18ZM186.91,49.67c1.5,0,2.87-.41,4.09-1.24s2.2-1.96,2.92-3.38,1.08-2.98,1.08-4.67c0-1.38-.25-2.56-.74-3.54s-1.18-1.74-2.07-2.28c-.89-.54-1.98-.8-3.27-.8-1.47,0-2.83.42-4.07,1.26-1.24.84-2.22,1.96-2.94,3.36-.72,1.4-1.08,2.97-1.08,4.71,0,1.35.25,2.52.74,3.52.49,1,1.2,1.76,2.12,2.28.92.52,1.99.78,3.22.78Z"/>
          </g>
        </g>
        <polygon class="cls-3" points="32.01 17.8 26.55 17.8 27.58 12.48 23.51 12.48 22.47 17.8 16.99 17.8 16.21 21.8 21.69 21.8 20.66 27.13 24.73 27.13 25.77 21.8 31.24 21.8 32.01 17.8"/>
      </g>
    </g>
  </g>
</svg>